<svg width="140" height="92" fill="none" xmlns="http://www.w3.org/2000/svg"><path d="M135.838 71.375v10.66a4.75 4.75 0 01-4.748 4.748H18.87V66.626h112.22a4.738 4.738 0 014.748 4.749z" fill="#F8D061"/><path d="M76.158 71.375v10.66a4.75 4.75 0 01-4.749 4.748H18.871V66.626h52.538a4.745 4.745 0 014.749 4.749z" fill="#fff"/><path d="M23.481 71.168h48.066m-48.066 3.99h48.066" stroke="#FCF0E4" stroke-miterlimit="10" stroke-linecap="round" stroke-linejoin="round"/><path d="M3 10.748v13.99a4.751 4.751 0 004.748 4.748h107.599V6H7.758A4.753 4.753 0 003 10.748z" fill="#F8D061"/><path d="M60.326 10.748v13.99a4.751 4.751 0 004.749 4.748h50.272V6H65.075a4.751 4.751 0 00-4.749 4.748z" fill="#FCF0E4"/><path d="M65.961 11.399h43.761m-43.761 3.98h43.761m-43.761 3.98h43.761" stroke="#fff" stroke-miterlimit="10" stroke-linecap="round" stroke-linejoin="round"/><path d="M53.203 10.945v14.167M47.52 10.945v14.167" stroke="#1D1141" stroke-miterlimit="10" stroke-linecap="round" stroke-linejoin="round"/><path d="M132.715 61.878a4.75 4.75 0 01-4.748 4.748H9.404V57.13h118.563a4.75 4.75 0 014.748 4.749z" fill="#2C3EC5"/><path d="M69.794 61.878a4.751 4.751 0 01-4.749 4.748H9.404V57.13h55.641a4.751 4.751 0 014.749 4.749z" fill="#FCF0E4"/><path d="M136.971 34.235V52.38a4.751 4.751 0 01-4.748 4.749H13.659V29.486h118.564a4.75 4.75 0 014.748 4.749z" fill="#F36B80"/><path d="M74.05 34.235V52.38a4.751 4.751 0 01-4.75 4.75H13.659V29.486h55.642a4.751 4.751 0 014.748 4.749z" fill="#fff"/><path d="M18.871 34.973h48.066m-48.066 3.99h48.066m-48.066 3.98h48.066" stroke="#FCF0E4" stroke-miterlimit="10" stroke-linecap="round" stroke-linejoin="round"/></svg>