<svg width="76" height="76" fill="none" xmlns="http://www.w3.org/2000/svg"><path d="M56.293 21.937a2.44 2.44 0 00-.715-1.725l-8.327-8.327a2.44 2.44 0 00-1.725-.714h-.209v8.536a2.439 2.439 0 002.44 2.44h8.536v-.21z" fill="#000"/><path d="M19.707 32.39V13.61a2.439 2.439 0 012.44-2.44h23.38a2.44 2.44 0 011.724.715l8.327 8.327a2.44 2.44 0 01.715 1.725v18.258m-36.586 2.44v14.877a2.439 2.439 0 002.44 2.44h23.658m-.488-34.147H25.805m24.39 6.097h-24.39M50.195 38H31.902m14.635 6.098H35.56m8.049 6.097h-6.83" stroke="#000" stroke-width="1.951" stroke-miterlimit="10" stroke-linecap="round" stroke-linejoin="round"/><path d="M55.805 64.83C62.54 64.83 68 59.37 68 52.633 68 45.9 62.54 40.44 55.805 40.44S43.61 45.899 43.61 52.634 49.07 64.83 55.805 64.83z" stroke="#000" stroke-width="1.951" stroke-miterlimit="10" stroke-linecap="round" stroke-linejoin="round"/><path d="M55.805 54.463a1.83 1.83 0 001.83-1.829v-6.097a1.83 1.83 0 00-3.66 0v6.097c0 1.01.82 1.83 1.83 1.83zm0 6.098a1.83 1.83 0 100-3.659 1.83 1.83 0 000 3.659z" fill="#000"/><path d="M16.293 29.707l-4.39 4.39M9.01 31.694l16.063 16.063 7.317 2.44-2.439-7.318-16.063-16.063a3.45 3.45 0 10-4.878 4.878z" stroke="#000" stroke-width="1.951" stroke-miterlimit="10" stroke-linecap="round" stroke-linejoin="round"/></svg>