<svg width="464" height="438" fill="none" xmlns="http://www.w3.org/2000/svg"><path d="M325.548 241.067c42.475-55.527 35.784-131.998-14.946-170.804-50.729-38.805-126.287-25.25-168.762 30.277-42.475 55.527-35.784 131.999 14.946 170.804 50.729 38.805 126.286 25.25 168.762-30.277zm-84.874 196.214c123.34 0 223.326-2.701 223.326-6.034 0-3.332-99.986-6.034-223.326-6.034-123.339 0-223.325 2.702-223.325 6.034 0 3.333 99.986 6.034 223.325 6.034z" fill="#FCF0E4"/><path d="M6.712 271.808L.667 282.274h12.1l-6.055-10.466z" fill="#F8D061"/><path d="M416.966 255.148l-6.045 10.476h12.101l-6.056-10.476z" fill="#F36B80"/><path d="M377.002 86.695l6.045-10.466h-12.09l6.045 10.466z" fill="#2C3EC5"/><path d="M289.47 37.568l-3.3-2.713c1.015-1.239 1.431-3.054 1.111-4.87-.32-1.816-1.335-3.386-2.713-4.197l2.168-3.685c2.478 1.463 4.208 4.059 4.753 7.134.534 3.076-.203 6.11-2.019 8.33z" fill="#F36B80"/><path d="M224.964 94.94c-.811-2.756-.309-5.832 1.378-8.459 1.698-2.616 4.304-4.336 7.145-4.72l.566 4.229c-1.581.214-3.129 1.26-4.133 2.809-1.004 1.548-1.325 3.385-.876 4.923l-4.08 1.218z" fill="#2C3EC5"/><path d="M124.126 35.88a9.234 9.234 0 01-2.361-.299l1.079-4.133c1.549.406 3.375.021 4.891-1.036 1.517-1.046 2.51-2.627 2.681-4.218l4.251.438c-.289 2.851-1.923 5.51-4.497 7.294-1.858 1.281-3.973 1.954-6.044 1.954z" fill="#F36B80"/><path d="M32.514 222.318c-1.752 0-3.546-.47-5.201-1.378-2.734-1.506-4.635-3.983-5.212-6.792l4.187-.865c.32 1.57 1.484 3.033 3.097 3.919 1.612.887 3.47 1.089 4.966.523l1.506 4.005a9.649 9.649 0 01-3.343.588z" fill="#2C3EC5"/><path d="M417.714 208.893l-2.98-3.065c1.143-1.111 1.762-2.883 1.645-4.72-.118-1.837-.951-3.514-2.232-4.464l2.563-3.418c2.296 1.719 3.727 4.496 3.93 7.615.203 3.118-.876 6.055-2.926 8.052zM313.842 83.138c-.534-2.82.267-5.841 2.221-8.276 1.944-2.435 4.71-3.888 7.583-3.995l.149 4.272c-1.602.054-3.236.95-4.389 2.382-1.154 1.442-1.655 3.236-1.356 4.806l-4.208.811z" fill="#F8D061"/><path d="M150.409 183.796v13.285a5.02 5.02 0 005.019 5.02h117.606v-23.335H155.439c-2.777.01-5.03 2.253-5.03 5.03z" fill="#A0C0FF"/><path d="M212.982 183.796v13.285a5.02 5.02 0 005.019 5.02h55.033v-23.335h-55.033a5.035 5.035 0 00-5.019 5.03z" fill="#FCF0E4"/><path d="M201.64 187.181h-39.857v6.13h39.857v-6.13z" stroke="#1D1141" stroke-miterlimit="10" stroke-linecap="round" stroke-linejoin="round"/><path d="M275.608 170.649v3.097a5.02 5.02 0 01-5.019 5.02H152.972v-13.147h117.606c2.777.01 5.03 2.253 5.03 5.03z" fill="#2C3EC5"/><path d="M213.024 170.649v3.097a5.02 5.02 0 01-5.019 5.02h-55.033v-13.147h55.033a5.028 5.028 0 015.019 5.03z" fill="#FAFAFA"/><path d="M170.764 243.357v38.704a5.021 5.021 0 005.02 5.019h127.218v-48.753H175.784a5.023 5.023 0 00-5.02 5.03z" fill="#F36B80"/><path d="M238.239 243.357v38.704a5.021 5.021 0 005.02 5.019h59.743v-48.753h-59.743a5.023 5.023 0 00-5.02 5.03z" fill="#FCF0E4"/><path d="M229.268 245.6v23.656m-7.016-23.656v25.172" stroke="#1D1141" stroke-miterlimit="10" stroke-linecap="round" stroke-linejoin="round"/><path d="M285.861 217.181v16.126a5.021 5.021 0 01-5.02 5.02h-124.27v-26.176H280.83a5.032 5.032 0 015.031 5.03z" fill="#F8D061"/><path d="M219.891 217.181v16.126a5.02 5.02 0 01-5.019 5.02h-58.29v-26.176h58.29a5.029 5.029 0 015.019 5.03z" fill="#FCF0E4"/><path d="M162.178 217.79h52.107m-52.107 4.314h52.107m-52.107 4.326h52.107" stroke="#FAFAFA" stroke-miterlimit="10" stroke-linecap="round" stroke-linejoin="round"/><path d="M160.234 207.131a5.02 5.02 0 005.02 5.02h124.259v-10.05H165.254a5.036 5.036 0 00-5.02 5.03z" fill="#F36B80"/><path d="M226.203 207.131a5.021 5.021 0 005.02 5.02h58.29v-10.05h-58.29a5.03 5.03 0 00-5.02 5.03z" fill="#FAFAFA"/><path d="M163.748 292.1v7.518a5.02 5.02 0 005.019 5.02h127.218V287.07H168.778c-2.777.01-5.03 2.264-5.03 5.03z" fill="#1D1141"/><path d="M231.223 292.1v7.518a5.02 5.02 0 005.019 5.02h59.743V287.07h-59.743c-2.766.01-5.019 2.264-5.019 5.03z" fill="#FFC9B1"/><path d="M155.311 309.679v14.994a5.02 5.02 0 005.019 5.02h131.319v-25.044H160.33a5.022 5.022 0 00-5.019 5.03z" fill="#A0C0FF"/><path d="M224.879 309.679v14.994a5.02 5.02 0 005.019 5.02h61.751v-25.044h-61.751a5.023 5.023 0 00-5.019 5.03z" fill="#FFC9B1"/><path d="M161.697 334.723v1.869a5.02 5.02 0 005.02 5.019h131.319v-11.918H166.717a5.03 5.03 0 00-5.02 5.03z" fill="#F8D061"/><path d="M231.265 334.723v1.869a5.02 5.02 0 005.02 5.019h61.751v-11.918h-61.751a5.03 5.03 0 00-5.02 5.03z" fill="#FFC9B1"/><path d="M161.697 346.631v9.612a5.021 5.021 0 005.02 5.019h131.319v-19.661H166.717c-2.766.01-5.02 2.264-5.02 5.03z" fill="#2C3EC5"/><path d="M231.265 346.631v9.612a5.021 5.021 0 005.02 5.019h61.751v-19.661h-61.751c-2.766.01-5.02 2.264-5.02 5.03z" fill="#FCF0E4"/><path d="M340.424 334.776v11.556a5.15 5.15 0 01-5.148 5.147H213.622v-21.85h121.654a5.137 5.137 0 015.148 5.147z" fill="#F8D061"/><path d="M275.726 334.776v11.556a5.15 5.15 0 01-5.148 5.147h-56.956v-21.85h56.956a5.144 5.144 0 015.148 5.147z" fill="#FAFAFA"/><path d="M218.621 334.552h52.106m-52.106 4.325h52.106" stroke="#FCF0E4" stroke-miterlimit="10" stroke-linecap="round" stroke-linejoin="round"/><path d="M196.417 269.042v15.165a5.15 5.15 0 005.148 5.148H318.21v-25.461H201.576a5.153 5.153 0 00-5.159 5.148z" fill="#F8D061"/><path d="M258.563 269.042v15.165a5.15 5.15 0 005.148 5.148h54.499v-25.461h-54.499a5.15 5.15 0 00-5.148 5.148z" fill="#FCF0E4"/><path d="M264.672 269.747h47.44m-47.44 4.314h47.44m-47.44 4.315h47.44" stroke="#FAFAFA" stroke-miterlimit="10" stroke-linecap="round" stroke-linejoin="round"/><path d="M250.842 269.256v15.357m-6.163-15.357v15.357" stroke="#1D1141" stroke-miterlimit="10" stroke-linecap="round" stroke-linejoin="round"/><path d="M337.038 324.47a5.15 5.15 0 01-5.147 5.148H203.359v-10.295h128.532a5.15 5.15 0 015.147 5.147z" fill="#2C3EC5"/><path d="M268.826 324.47a5.15 5.15 0 01-5.147 5.148h-60.32v-10.295h60.32a5.15 5.15 0 015.147 5.147z" fill="#FCF0E4"/><path d="M341.652 294.503v19.672a5.15 5.15 0 01-5.148 5.148H207.973v-29.968h128.531a5.15 5.15 0 015.148 5.148z" fill="#A0C0FF"/><path d="M273.44 294.503v19.672a5.15 5.15 0 01-5.148 5.148h-60.319v-29.968h60.319a5.15 5.15 0 015.148 5.148z" fill="#FAFAFA"/><path d="M213.622 295.304h52.107m-52.107 4.325h52.107m-52.107 4.315h52.107" stroke="#FCF0E4" stroke-miterlimit="10" stroke-linecap="round" stroke-linejoin="round"/><path d="M255.017 366.346v3.182a4.975 4.975 0 01-4.976 4.977h-117.66v-13.147H250.03a4.993 4.993 0 014.987 4.988z" fill="#F36B80"/><path d="M192.444 366.346v3.182a4.975 4.975 0 01-4.976 4.977h-55.076v-13.147h55.076c2.744.011 4.976 2.243 4.976 4.988z" fill="#FCF0E4"/><path d="M262.237 379.493v13.371a4.975 4.975 0 01-4.977 4.977H127.928v-23.336H257.26c2.745.011 4.977 2.243 4.977 4.988z" fill="#F36B80"/><path d="M193.705 379.493v13.371a4.976 4.976 0 01-4.977 4.977h-60.8v-23.336h60.8c2.744.011 4.977 2.243 4.977 4.988z" fill="#FCF0E4"/><path d="M132.68 379.642h52.107m-52.107 4.315h52.107m-52.107 4.325h52.107" stroke="#FAFAFA" stroke-miterlimit="10" stroke-linecap="round" stroke-linejoin="round"/><path d="M204.662 379.642v13.04m5.991-13.04v13.04" stroke="#1D1141" stroke-miterlimit="10" stroke-linecap="round" stroke-linejoin="round"/><path d="M252.123 402.828v.085a4.975 4.975 0 01-4.977 4.977H122.844v-10.049h124.302a4.99 4.99 0 014.977 4.987z" fill="#F8D061"/><path d="M186.165 402.828v.085a4.975 4.975 0 01-4.977 4.977h-58.333v-10.049h58.333c2.744.01 4.977 2.242 4.977 4.987z" fill="#FAFAFA"/><path d="M263.251 412.878v12.848a4.974 4.974 0 01-4.976 4.976H126.913V407.89h131.362a4.984 4.984 0 014.976 4.988z" fill="#F8D061"/><path d="M193.683 412.878v12.848a4.975 4.975 0 01-4.977 4.976h-61.793V407.89h61.793a4.984 4.984 0 014.977 4.988z" fill="#FCF0E4"/><path d="M227.186 412.397v13.948m-5.03-13.948v13.948m-5.02-13.948v13.948" stroke="#1D1141" stroke-miterlimit="10" stroke-linecap="round" stroke-linejoin="round"/><path d="M372.036 356.467v7.604a4.975 4.975 0 01-4.977 4.977h-127.26v-17.569h127.26a4.985 4.985 0 014.977 4.988z" fill="#A0C0FF"/><path d="M304.561 356.467v7.604a4.975 4.975 0 01-4.977 4.977h-59.785v-17.569h59.785a4.985 4.985 0 014.977 4.988z" fill="#FAFAFA"/><path d="M247.392 355.944h52.107m-52.107 4.325h52.107" stroke="#FCF0E4" stroke-miterlimit="10" stroke-linecap="round" stroke-linejoin="round"/><path d="M224.377 398.919v2.115a4.975 4.975 0 004.977 4.977h131.361v-12.079H229.354a4.99 4.99 0 00-4.977 4.987z" fill="#A0C0FF"/><path d="M293.945 398.919v2.115a4.975 4.975 0 004.977 4.977h61.793v-12.079h-61.793a4.99 4.99 0 00-4.977 4.987z" fill="#FCF0E4"/><path d="M245.448 374.035v14.92a4.975 4.975 0 004.977 4.977h131.362v-24.884H250.425a4.984 4.984 0 00-4.977 4.987z" fill="#1D1141"/><path d="M315.016 374.035v14.92a4.976 4.976 0 004.977 4.977h61.794v-24.884h-61.794a4.985 4.985 0 00-4.977 4.987z" fill="#FAFAFA"/><path d="M322.354 375.466h52.106m-52.106 4.315h52.106m-52.106 4.325h52.106" stroke="#FCF0E4" stroke-miterlimit="10" stroke-linecap="round" stroke-linejoin="round"/><path d="M298.036 377.431h-41.972v7.604h41.972v-7.604z" stroke="#FAFAFA" stroke-miterlimit="10" stroke-linecap="round" stroke-linejoin="round"/><path d="M233.273 410.955v14.813a4.941 4.941 0 004.945 4.945h130.336v-24.692H238.218a4.925 4.925 0 00-4.945 4.934z" fill="#2C3EC5"/><path d="M302.297 410.955v14.813a4.94 4.94 0 004.945 4.945h61.312v-24.692h-61.312a4.932 4.932 0 00-4.945 4.934z" fill="#FCF0E4"/><path d="M290.325 414.843h-47.066v6.173h47.066v-6.173z" stroke="#1D1141" stroke-miterlimit="10" stroke-linecap="round" stroke-linejoin="round"/><path d="M317.067 416.317v9.409a4.975 4.975 0 004.977 4.976h117.649V411.34H322.044a4.982 4.982 0 00-4.977 4.977z" fill="#1D1141"/><path d="M379.64 416.317v9.409a4.975 4.975 0 004.977 4.976h55.076V411.34h-55.076a4.982 4.982 0 00-4.977 4.977z" fill="#FAFAFA"/><path d="M386.336 416.701h48.412m-48.412 4.326h48.412" stroke="#FCF0E4" stroke-miterlimit="10" stroke-linecap="round" stroke-linejoin="round"/><path d="M369.11 416.701v9.644m-4.923-9.644v9.644" stroke="#1D1141" stroke-miterlimit="10" stroke-linecap="round" stroke-linejoin="round"/><path d="M202.846 412.034h-45.859c-6.247-18.327-11.192-38.522-14.813-55.663-4.859-23.069-7.326-40.616-7.326-40.616l-15.219-67.688 44.909-41.246s12.399 63.737 18.177 100.049c2.339 14.631 5.062 29.861 7.732 44.022 6.333 33.524 12.399 61.142 12.399 61.142z" fill="#FFC9B1"/><path d="M164.986 299.864c3.001 3.749 8.758 4.955 13.019 2.745" stroke="#1D1141" stroke-miterlimit="10" stroke-linecap="round" stroke-linejoin="round"/><path d="M202.846 412.034h-45.859c-6.247-18.327-11.192-38.522-14.813-55.663l48.273-5.479c6.333 33.524 12.399 61.142 12.399 61.142z" fill="#FAFAFA"/><path d="M148.305 371.152c14.738-1.228 29.476-2.446 44.214-3.674" stroke="#1D1141" stroke-miterlimit="10" stroke-linecap="round" stroke-linejoin="round"/><path d="M154.307 407.111l6.931 23.602h48.048c1.645 0 2.574-1.88 1.581-3.193l-.79-1.036a33.45 33.45 0 01-6.12-13.467l-1.986-9.602c-.951-4.603-6.878-5.959-9.74-2.232l-5.223 6.803-32.701-.875z" fill="#F36B80"/><path d="M161.345 427.114c13.734.384 28.013 1.516 41.747 1.901 1.303-2.659 5.233-3.556 7.551-1.719m-7.626-16.383c-3.492.982-6.974 1.965-10.466 2.947 3.685.406 7.358.823 11.043 1.229-2.98 1.228-5.959 2.467-8.939 3.695l10.658-.032" stroke="#1D1141" stroke-miterlimit="10" stroke-linecap="round" stroke-linejoin="round"/><path d="M116.18 414.202H72.115s-1.57-28.472-3.3-57.82c-.844-14.429-1.73-29.06-2.5-40.627-2.317-35.093-1.986-76.937 1.752-107.684l45.208 52.31-.844 55.374s2.179 17.729 3.45 41.823c.907 17.023 1.367 37.229.299 56.624z" fill="#FFC9B1"/><path d="M64.874 305.941c3.236 1.324 7.39-.662 8.416-4.005" stroke="#1D1141" stroke-miterlimit="10" stroke-linecap="round" stroke-linejoin="round"/><path d="M115.881 357.578c.907 17.023 1.367 37.229.299 56.624H72.115s-1.57-28.472-3.3-57.82l47.066 1.196z" fill="#FAFAFA"/><path d="M70.876 371.098c14.065.289 28.141.588 42.207.876" stroke="#1D1141" stroke-miterlimit="10" stroke-linecap="round" stroke-linejoin="round"/><path d="M78.672 401.675l3.492 6.493 35.393-2.189v24.328H61.691c-1.783 0-2.659-2.178-1.367-3.417l1.25-1.186a31.02 31.02 0 009.387-18.433l.566-4.304c.492-3.653 5.394-4.55 7.145-1.292z" fill="#F36B80"/><path d="M62.877 425.063c.843.833 1.676 1.666 2.52 2.51 17.259-.47 34.208-.779 51.466-1.26m-46.959-13.916l7.24 1.762c-2.808.545-5.627 1.1-8.436 1.645 1.74.79 3.481 1.57 5.222 2.36-2.606.417-5.2.823-7.807 1.239" stroke="#1D1141" stroke-miterlimit="10" stroke-linecap="round" stroke-linejoin="round"/><path d="M189.902 270.954l-31.323-97.123-82.972-3.834s-17.995 39.494-15.635 110.611l60.853.887 1.998 7.283 67.079-17.824z" fill="#2C3EC5"/><path d="M120.825 281.495l-10.498-58.045m-50.355 45.923l58.216 1.399m1.826 6.269l65.734-15.582m-75.325 8.363a235.116 235.116 0 014.027-24.222m44.331-55.685a195745.07 195745.07 0 0118.509 73.146M73.642 178.595c24.542.576 49.074 1.142 73.616 1.719m-6.002-.053c3.514 11.139 11.353 20.847 21.488 26.646m-81.637-27.875c-4.528 5.607-9.056 11.214-13.585 16.832" stroke="#1D1141" stroke-miterlimit="10" stroke-linecap="round" stroke-linejoin="round"/><path d="M17.391 154.063c3.194 7.038 12.752 16.191 18.882 19.768 11.428 6.675 29.284 17.729 38.554-1.356l13.137-32.477-70.573 14.065z" fill="#FFC9B1"/><path d="M51.674 157.224c1.484 2.969 1.73 6.547.64 9.687-1.078 3.14-3.46 5.82-6.46 7.251m22.021-18.604c2.061.107 4.08.983 5.585 2.403a8.803 8.803 0 012.692 5.447" stroke="#1D1141" stroke-miterlimit="10" stroke-linecap="round" stroke-linejoin="round"/><path d="M123.068 96.307s14.119 2.477 27.479 5.404c13.371 2.937 34.945 12.495 34.945 12.495l-20.73 28.729-6.76-5.938.566 36.824-83.751-1.357 7.999-25.514-10.114-29.391c9.73-13.873 18.273-14.855 26.07-17.002 7.785-2.125 24.296-4.25 24.296-4.25z" fill="#1D1141"/><path d="M158.781 138.043l-4.784-5.393c-3.524-3.984-5.97-9.313-5.789-14.621.193-5.318 2.724-10.509 6.793-13.926m-72.42 41.95c3.46-14.193 6.92-28.387 10.391-42.57m12.528-2.659c-.171 4.336 1.538 8.704 4.613 11.769 4.753 4.742 12.485 5.938 18.712 3.429 6.226-2.51 10.829-8.373 12.452-14.888" stroke="#FAFAFA" stroke-miterlimit="10" stroke-linecap="round" stroke-linejoin="round"/><path d="M131.046 69.33c-3.332-3.6-8.277-4.945-13.179-4.721-5.105.235-10.22.47-15.325.715.619 1.698 1.217 3.375 1.826 5.03 1.944-.373 3.887-.747 5.831-1.11-1.623 1.26-3.236 2.531-4.859 3.791a6343.87 6343.87 0 015.265 14.46l12.378 3.675c4.902-.011 9.516-3.535 11.128-8.17 1.602-4.635.267-10.082-3.065-13.67z" fill="#F8D061"/><path d="M135.467 100.781c-2.178-.619-4.474-1.228-6.653-1.847-.299-2.68-.737-5.607-1.036-8.288 2.285-.17 4.421-1.773 5.126-3.951.705-2.179-.139-4.795-2.04-6.066s-4.72-1.015-6.279.651c-1.549-2.766-3.087-5.874-4.635-8.65-1.261-.043-2.596-.182-3.845-.225-2.478-.085-4.913 1.517-5.895 3.791-1.271 2.948-1.827 6.035-2.67 9.132-.588 2.168.405 4.635 2.093 6.12 1.687 1.484 3.93 2.135 6.119 2.616.107 1.677.032 3.321.139 4.998-2.136.534-4.186 1.217-6.333 1.751.609 4.134 2.83 7.85 6.547 9.772 3.706 1.923 8.341 1.944 12.068.054 3.738-1.89 6.643-5.735 7.294-9.858z" fill="#FFC9B1"/><path d="M118.455 84.164a.855.855 0 10-.001-1.71.855.855 0 00.001 1.71zm-8.352-1.656a.854.854 0 100-1.708.854.854 0 000 1.708z" fill="#1D1141"/><path d="M127.458 84.548c.843-.363 1.698-.726 2.541-1.1m-14.556 10.669c1.911.257 3.887.139 5.756-.352m5.778-3.108c.438-.032.876-.075 1.314-.107m-14.61-8.853c-.428 1.035-.855 2.072-1.293 3.107.417.032.833.064 1.25.086m-4.283-6.985l2.403.128m5.233-.737l2.681.097m-5.233 9.355c.192.417.641.684 1.1.652a1.174 1.174 0 001.004-.801" stroke="#1D1141" stroke-miterlimit="10" stroke-linecap="round" stroke-linejoin="round"/><path d="M206.873 133.803c-6.099-7.764-14.407-13.467-23.144-18.07l-17.888 25.45c1.612 1.453 3.214 2.905 4.827 4.347-5.265 4.208-10.562 8.159-15.827 12.367-5.65 4.507-9.484 10.84-11.78 17.697-.321.939.139 2.253.801 3.001a3.434 3.434 0 002.648 1.142c-.363 1.111-.074 2.382.705 3.247.79.854 2.051 1.25 3.183.993-.246 1.079.213 2.168 1.025 2.916.822.747 2.051 1.025 3.108.683-.107.929.31 1.73.929 2.435a3.399 3.399 0 002.488 1.132c2.147.011 4.518.492 6.654.748.587-1.132 1.314-2.35 1.89-3.482a11.469 11.469 0 01-.149-.587 2.553 2.553 0 00-1.389-.032c2.403-2.755 4.732-6.109 7.134-8.854 6.344-7.273 17.398-8.544 26.102-12.698 5.842-2.798 10.722-7.786 12.421-14.044 1.698-6.28.267-13.296-3.738-18.391z" fill="#FFC9B1"/><path d="M170.07 145.882c4.122-3.011 8.245-6.023 12.357-9.024m-20.143 52.876c1.079-.812 2.147-1.634 3.226-2.446m-11.075-.908v2.392m-4.027-5.905l-.128 1.634m-3.887-5.661c-.086.417-.171.833-.257 1.26" stroke="#1D1141" stroke-miterlimit="10" stroke-linecap="round" stroke-linejoin="round"/><path d="M49.89 129.318l-20.249 27.105-10.466-61.857a7.654 7.654 0 011.42-5.874l18.273-24.468 11.022 65.094z" fill="#F36B80"/><path d="M84.706 154.202l-54.157 7.615-11.011-65.094 54.157-7.615 11.011 65.094z" fill="#F36B80"/><path d="M26.02 98.934l9.057 56.582m7.327-42.698l21.658-3.204m-20.195 8.415l20.195-2.926" stroke="#1D1141" stroke-miterlimit="10" stroke-linecap="round" stroke-linejoin="round"/><path d="M73.695 89.108l-.598-4.635-27.094 1.773-3.6-22.427-3.535.416-18.294 24.639c-2.456 3.3.31 7.924 4.379 7.337l48.742-7.103z" fill="#FCF0E4"/><path d="M42.404 63.819L23.81 91.639s4.603-3.641 22.193-5.403" stroke="#1D1141" stroke-miterlimit="10" stroke-linecap="round" stroke-linejoin="round"/><path d="M36.572 147.292c-.085-.555-.17-1.132-.438-1.634-.267-.502-.929-.854-1.484-.897-.908 4.699-1.816 9.409-2.713 14.108-1.751-6.953-3.759-13.649-5.51-20.612-.235-.94-.94-1.88-1.901-1.965-.043 1.004-.342 1.719-.396 2.723.118-.502-.598-1.164-1.11-1.1-1.784 5.329-3.834 10.83-5.618 16.148 3.866 7.818 10.776 13.766 19.032 16.564l2.434-8.244c-.78-5.031-1.537-10.061-2.296-15.091z" fill="#FFC9B1"/><path d="M24.088 138.759c-.043 5.906-.086 11.812-.14 17.718m-4.282-2.777c1.015-4.016 2.04-8.031 3.055-12.058m9.206 15.967c-.171.758-.331 1.506-.502 2.264" stroke="#1D1141" stroke-miterlimit="10" stroke-linecap="round" stroke-linejoin="round"/><path d="M329.039 349.343l-.171-.267a27.225 27.225 0 01-3.268-22.043l2.852-10.103-43.093-10.68s-8.576 25.878-8.245 25.418c.331-.448 26.026 20.687 26.026 20.687h24.265c1.538 0 2.467-1.709 1.634-3.012z" fill="#1D1141"/><path d="M285.391 337.072l4.154-4.635c-.096 2.991-.192 5.992-.299 8.982 0-.246-.011-.502-.011-.748m20.89-13.616c3.588.352 7.166.694 10.755 1.046m-11.524 3.749c3.674.342 7.348.683 11.022 1.036m-10.766 3.663c3.931.31 7.871.609 11.802.919" stroke="#FAFAFA" stroke-miterlimit="10" stroke-linecap="round" stroke-linejoin="round"/><path d="M361.997 371.899l7.113 25.867 50.376 15.464c1.805.556 3.258-1.538 2.115-3.033a86.428 86.428 0 01-14.791-30.064l-4.283-15.966-40.53 7.732z" fill="#1D1141"/><path d="M379.213 400.233c.534-1.164 1.068-2.339 1.602-3.503 1.356 2.029 2.723 4.058 4.08 6.087m15.934-14.855c2.253-.363 4.517-.726 6.771-1.09m-5.009 5.874c2.339-.352 4.689-.694 7.027-1.046m-5.511 6.365c2.756-.62 5.511-1.228 8.277-1.848" stroke="#FAFAFA" stroke-miterlimit="10" stroke-linecap="round" stroke-linejoin="round"/><path d="M251.055 228.715c1.442 33.118 13.318 38.009 49.416 38.009 0 0-8.117 14.6-17.676 42.741l45.219 15.881 15.229-32.403 2.051 4.443s1.474 33.706 15.122 79.554l48.23-2.125s-13.691-61.9-18.39-84.328c-4.699-22.428-12.293-36.183-26.112-53.239-13.82-17.056-38.875-42.783-38.875-42.783l-74.214 34.25z" fill="#F36B80"/><path d="M300.193 267.301a105.861 105.861 0 0110.712-18.679m33-19.95c6.697 2.061 12.389 7.156 15.176 13.574 2.788 6.419 2.628 14.055-.437 20.356-5.223 10.733-10.381 21.509-15.71 32.189" stroke="#1D1141" stroke-miterlimit="10" stroke-linecap="round" stroke-linejoin="round"/><path d="M258.082 224.881c-1.612 8.127.972 16.97 6.697 22.962 5.724 5.991 14.449 8.96 22.641 7.71 9.281-1.409 17.461-6.952 23.506-14.14-.598 1.773.598 3.93 2.424 4.368 1.827.428 3.867-.961 4.123-2.819-9.911 22.577-19.811 45.154-29.722 67.731m60.597-27.5a647.49 647.49 0 0020.559 93.16m6.547-97.016c3.471 2.168 8.266 1.965 11.555-.47" stroke="#1D1141" stroke-miterlimit="10" stroke-linecap="round" stroke-linejoin="round"/><path d="M292.899 122.579c-3.941-3.717-9.74-5.34-15.134-4.838-5.393.502-10.562 3.183-14.054 7.326-3.033 3.599-5.714 7.679-7.049 12.197-.278.94-.747 1.922-.288 2.787s1.474 1.399 2.445 1.271c-.331.684-.288 1.559.235 2.125a1.953 1.953 0 002.104.46c0 .843.513 1.719 1.293 2.05.779.331 1.751.15 2.36-.448.833 1.89 2.969 3.15 5.041 3.001l19.341-19.278c.972.577 2.381.267 3.012-.672.63-.94.405-2.361-.502-3.044.694.096 1.271-.342 1.57-.983.288-.651.138-1.473-.374-1.954z" fill="#1D1141"/><path d="M271.913 144.163s-14.332 7.038-23.122 11.182c-8.789 4.143-11.94 10.466-15.283 19.117-3.343 8.65-9.334 23.709-11.096 42.879-1.762 19.17 12.314 26.454 26.39 21.178l8.672-17.216 63.32-13.264 24.254-38.618s-12.581-8.352-20.078-14.13c-7.497-5.778-13.296-7.059-22.492-7.903-9.195-.844-28.173-2.36-28.173-2.36l-2.392-.865z" fill="#FAFAFA"/><path d="M241.667 160.172a9.852 9.852 0 017.615.715 9.868 9.868 0 014.763 5.992c3.471 12.591 2.318 26.101-.811 38.778-5.896-2.531-12.773-2.691-18.872-.683m75.603-55.653c.598 4.956 1.196 9.922 1.805 14.877m-52.299-11.096c1.068 7.348 6.119 13.99 12.912 16.981 6.792 2.99 15.101 2.232 21.252-1.933 6.141-4.176 9.911-11.62 9.634-19.042" stroke="#1D1141" stroke-miterlimit="10" stroke-linecap="round" stroke-linejoin="round"/><path d="M283.565 147.249c.053-.705.106-1.388.17-2.082 2.393-.214 4.667-1.538 6.024-3.525 1.399-2.071 1.623-4.667 1.121-7.112-.47-2.275-.886-4.4-1.367-6.686-.94.47-2.211.321-2.883-.48-.214.961-1.036 1.762-1.998 1.954-.971.192-1.868-.075-2.445-.876a1.862 1.862 0 01-1.41 1.303c-.662.128-1.484-.096-1.89-.63.203 1.111-.246 2.328-1.132 3.033-.887.716-2.232.94-3.279.502-.053.854-.726 1.698-1.559 1.848-.267-.374-.47-.983-.737-1.357-1.88-.662-4.187-.117-5.5 1.303-1.314 1.421-1.56 3.631-.577 5.276.844 1.41 2.52 2.307 4.24 2.36l-.609 4.838c-2.04 1.068-4.25 2.211-6.29 3.268-.15 6.291 3.513 12.047 8.949 15.219 5.436 3.172 12.592 3.129 17.985-.096 5.404-3.225 8.694-10.253 8.48-16.543-5.062-.545-10.242-.983-15.293-1.517z" fill="#A77456"/><path d="M279.731 136.505a.854.854 0 100-1.708.854.854 0 000 1.708zm8.704-1.345a.855.855 0 10-.002-1.71.855.855 0 00.002 1.71z" fill="#1D1141"/><path d="M270.119 142.176c.662.011 1.324.032 1.975.043m5.821 2.136c1.976 1.196 4.475 1.495 6.685.801m-1.003 1.805c-.043.598-.075 1.196-.118 1.794m.961-14.14c.342.876.695 1.762 1.036 2.638-.374.032-.843.171-1.228.203m-3.001 1.111c.288.683 1.218 1.004 1.869.64m-4.817-7.038a1.657 1.657 0 011.122-1.484c.63-.203 1.378.043 1.773.566m6.269-.684c.662-.096 1.324-.192 1.975-.288m-20.537 5.725c.78.192 1.57.384 2.35.566" stroke="#1D1141" stroke-miterlimit="10" stroke-linecap="round" stroke-linejoin="round"/><path d="M387.073 207.131c3.952-4.048 6.771-21.691 1.901-28.472-4.87-6.793-18.081-7.861-18.081-7.861l2.98 33.279 13.2 3.054zm-97.57-14.076c-6.024-.064-12.571 3.802-15.326 9.163l28.376 7.284c.524-5.319.972-10.701 1.495-16.009a60.832 60.832 0 00-14.545-.438z" fill="#A77456"/><path d="M304.08 162.853l.609-4.465 31.976 3.162a37.178 37.178 0 0111.705 3.139l3.641 1.645a37.067 37.067 0 0111.887-14.396l12.634-9.153 5.693 1.976s-15.134 32.584-14.717 31.698c.416-.887-63.428-13.606-63.428-13.606z" fill="#FCF0E4"/><path d="M374.45 206.48l-24.596 20.249a12.64 12.64 0 01-9.441 2.798l-44.086-4.956 7.764-61.718 44.118 4.966c3.397.384 6.814-.63 9.452-2.809l24.564-20.249-7.775 61.719z" fill="#2C3EC5"/><path d="M348.412 168.716l-7.764 61.718m16.319-64.345l-7.764 61.718m-36.899-47.279l25.193 2.83m-25.642 1.143l25.194 2.83m-25.599.811l25.183 2.83m36.012-20.74l-8.427 6.953-2.648 22.577 8.234-6.888 2.841-22.642z" stroke="#1D1141" stroke-miterlimit="10" stroke-linecap="round" stroke-linejoin="round"/><path d="M385.589 183.625c-5.447 2.2-10.883 4.4-16.33 6.611-.576.235-1.164.47-1.623.886-.459.417-.769 1.057-.641 1.655 1.111-.021 2.318-.042 3.428-.064-.801.193-1.74.513-2.552.705-.438.107-.897.224-1.26.502a1.709 1.709 0 00-.62 1.688l9.527 1.356c-2.243.075-4.55.235-6.793.31-.512.021-1.046.042-1.495.277-.448.235-.801.769-.651 1.26 3.535 1.4 7.102 2.831 10.637 4.23-1.762-.054-3.589-.182-5.351-.235-.47-.011-.972-.022-1.399.181-.427.203-.747.705-.598 1.154 3.183 1.174 6.141 2.242 9.324 3.417 2.456.908 5.414.427 7.903-.416l-1.506-23.517z" fill="#A77456"/><path d="M376.992 187.042c2.36-1.132 4.72-2.264 7.07-3.385m-15.102 9.014c4.902-.267 9.804-.524 14.706-.791m-11.106 4.689l9.985 1.698m-7.721 3.962c2.189.652 4.378 1.303 6.579 1.965" stroke="#1D1141" stroke-miterlimit="10" stroke-linecap="round" stroke-linejoin="round"/><path d="M312.699 215.322c-.438-.427-1.079-.523-1.687-.566-4.304-.245-8.715-.341-13.019-.587 5.628-1.335 11.363-2.179 16.991-3.514.022-1.025-.726-2.2-1.73-2.36a2.505 2.505 0 00-.598-1.933c-.459-.523-1.196-.513-1.847-.758a12666.64 12666.64 0 01-17.942-6.835l-4.497-3.332c-5.906-.396-11.715 1.356-17.365 3.097-10.231 3.14-20.964 6.066-30.865 10.124-4.72 1.933-8.277 6.483-9.013 11.534-.737 5.052 1.367 10.424 5.35 13.628 3.973 3.204 9.74 3.983 14.578 2.349 9.505-3.203 19.074-7.005 27.971-11.619 4.25 1.463 8.64 2.851 13.114 3.279 5.404-2.724 11.086-5.426 16.501-8.149.181-.47-.107-.961-.534-1.207 1.762-.598 3.449-.908 5.211-1.506a2.076 2.076 0 00-.619-1.645z" fill="#A77456"/><path d="M295.804 220.919c4.282-.876 8.565-1.762 12.858-2.638m-14.14-3.792c2.072-.373 4.154-.736 6.226-1.11m-7.166-5.319l19.971.769m-21.071-10.957c2.446 1.132 4.892 2.274 7.348 3.407" stroke="#1D1141" stroke-miterlimit="10" stroke-linecap="round" stroke-linejoin="round"/></svg>