<svg width="55" height="19" fill="none" xmlns="http://www.w3.org/2000/svg"><path d="M12.441 6.117c-.273-1.18-.941-2.004-2.004-2.472-.593-.258-1.253-.387-1.98-.387-1.39 0-2.535.527-3.434 1.582-.89 1.047-1.335 2.625-1.335 4.734 0 2.125.484 3.63 1.453 4.512.968.883 2.07 1.324 3.304 1.324 1.211 0 2.203-.348 2.977-1.043.773-.703 1.25-1.62 1.43-2.754H8.855V8.73h7.196V18h-2.39l-.364-2.156c-.695.82-1.32 1.398-1.875 1.734-.953.586-2.125.879-3.516.879-2.289 0-4.164-.793-5.625-2.379C.758 14.484-.004 12.305-.004 9.54c0-2.797.77-5.039 2.309-6.726C3.844 1.125 5.879.28 8.41.28c2.195 0 3.957.559 5.285 1.676 1.336 1.11 2.102 2.496 2.297 4.16h-3.55zm13.735-1.195c.062 0 .113.004.152.012.047 0 .145.003.293.011v3.422a9.05 9.05 0 00-.96-.058c-1.345 0-2.247.437-2.708 1.312-.258.492-.387 1.25-.387 2.274V18h-3.363V5.227h3.188v2.226c.515-.851.965-1.433 1.347-1.746.625-.523 1.438-.785 2.438-.785zm8.144 10.723c.977 0 1.727-.348 2.25-1.043.524-.696.785-1.684.785-2.965 0-1.282-.261-2.266-.785-2.953-.523-.696-1.273-1.043-2.25-1.043-.976 0-1.73.347-2.261 1.043-.524.687-.786 1.671-.786 2.953 0 1.281.262 2.27.786 2.965.53.695 1.285 1.043 2.261 1.043zm6.54-4.008c0 1.875-.54 3.48-1.618 4.816-1.078 1.328-2.715 1.992-4.91 1.992-2.195 0-3.832-.664-4.91-1.992-1.078-1.336-1.617-2.941-1.617-4.816 0-1.844.539-3.442 1.617-4.793 1.078-1.352 2.715-2.028 4.91-2.028 2.195 0 3.832.676 4.91 2.028 1.078 1.351 1.617 2.949 1.617 4.793zM43.226.785h3.28v9.305l4.161-4.805h4.137l-4.465 4.887L54.98 18h-4.03l-3.06-5.46-1.382 1.44V18h-3.281V.785z" fill="#000"/></svg>