<svg width="84" height="28" fill="none" xmlns="http://www.w3.org/2000/svg"><path d="M19.615 9.176c-.41-1.77-1.412-3.006-3.006-3.71-.89-.386-1.88-.58-2.97-.58-2.086 0-3.803.792-5.15 2.374-1.337 1.57-2.005 3.937-2.005 7.101 0 3.188.727 5.444 2.18 6.768 1.453 1.324 3.106 1.986 4.957 1.986 1.816 0 3.305-.521 4.465-1.564 1.16-1.055 1.875-2.432 2.145-4.131h-5.995v-4.324H25.03V27h-3.586l-.545-3.234c-1.043 1.23-1.98 2.097-2.812 2.601-1.43.88-3.188 1.319-5.273 1.319-3.434 0-6.247-1.19-8.438-3.569C2.09 21.727.947 18.457.947 14.31c0-4.196 1.155-7.559 3.463-10.09C6.72 1.687 9.771.422 13.568.422c3.293 0 5.936.838 7.928 2.514C23.5 4.6 24.648 6.68 24.941 9.176h-5.326zm20.602-1.793c.093 0 .17.006.228.017.07 0 .217.006.44.018v5.133a13.54 13.54 0 00-1.442-.088c-2.015 0-3.369.656-4.06 1.969-.387.738-.58 1.875-.58 3.41V27h-5.045V7.84h4.781v3.34c.773-1.278 1.447-2.15 2.021-2.62.938-.785 2.157-1.177 3.657-1.177zm12.217 16.084c1.464 0 2.59-.522 3.375-1.565.785-1.043 1.177-2.525 1.177-4.447 0-1.922-.392-3.398-1.177-4.43-.786-1.043-1.91-1.564-3.375-1.564s-2.596.521-3.393 1.564c-.785 1.032-1.178 2.508-1.178 4.43 0 1.922.393 3.404 1.178 4.447.797 1.043 1.928 1.565 3.393 1.565zm9.808-6.012c0 2.813-.808 5.22-2.426 7.225-1.617 1.992-4.072 2.988-7.365 2.988s-5.748-.996-7.365-2.988c-1.617-2.004-2.426-4.412-2.426-7.225 0-2.765.809-5.162 2.426-7.19 1.617-2.027 4.072-3.04 7.365-3.04s5.748 1.013 7.365 3.04c1.618 2.028 2.426 4.425 2.426 7.19zm3.551-16.277h4.922v13.957l6.24-7.207h6.205l-6.697 7.33L83.423 27h-6.046l-4.588-8.191-2.074 2.162V27h-4.922V1.178z" fill="#000"/></svg>