<svg width="140" height="92" viewBox="0 0 140 92" fill="none" xmlns="http://www.w3.org/2000/svg">
<rect x="14" y="10" width="112" height="72" rx="8" fill="#F36B80"/>
<rect x="22" y="20" width="6" height="4" rx="1" fill="#FCF0E4"/>
<rect x="22" y="26" width="6" height="4" rx="1" fill="#FCF0E4"/>
<rect x="22" y="32" width="6" height="4" rx="1" fill="#FCF0E4"/>
<rect x="22" y="38" width="6" height="4" rx="1" fill="#FCF0E4"/>
<rect x="22" y="44" width="6" height="4" rx="1" fill="#FCF0E4"/>
<rect x="22" y="50" width="6" height="4" rx="1" fill="#FCF0E4"/>
<rect x="22" y="56" width="6" height="4" rx="1" fill="#FCF0E4"/>
<rect x="22" y="62" width="6" height="4" rx="1" fill="#FCF0E4"/>
<rect x="22" y="68" width="6" height="4" rx="1" fill="#FCF0E4"/>
<path d="M85.4223 44.2111C86.8964 44.9482 86.8964 47.0518 85.4223 47.7889L61.8944 59.5528C60.5646 60.2177 59 59.2507 59 57.7639L59 34.2361C59 32.7493 60.5646 31.7823 61.8944 32.4472L85.4223 44.2111Z" fill="#FCF0E4"/>
<rect x="112" y="20" width="6" height="4" rx="1" fill="#FCF0E4"/>
<rect x="112" y="26" width="6" height="4" rx="1" fill="#FCF0E4"/>
<rect x="112" y="32" width="6" height="4" rx="1" fill="#FCF0E4"/>
<rect x="112" y="38" width="6" height="4" rx="1" fill="#FCF0E4"/>
<rect x="112" y="44" width="6" height="4" rx="1" fill="#FCF0E4"/>
<rect x="112" y="50" width="6" height="4" rx="1" fill="#FCF0E4"/>
<rect x="112" y="56" width="6" height="4" rx="1" fill="#FCF0E4"/>
<rect x="112" y="62" width="6" height="4" rx="1" fill="#FCF0E4"/>
<rect x="112" y="68" width="6" height="4" rx="1" fill="#FCF0E4"/>
</svg>
