<svg width="140" height="92" fill="none" xmlns="http://www.w3.org/2000/svg"><rect x="14" y="10" width="112" height="72" rx="8" fill="#F36B80"/><rect x="22" y="20" width="6" height="4" rx="1" fill="#FCF0E4"/><rect x="22" y="26" width="6" height="4" rx="1" fill="#FCF0E4"/><rect x="22" y="32" width="6" height="4" rx="1" fill="#FCF0E4"/><rect x="22" y="38" width="6" height="4" rx="1" fill="#FCF0E4"/><rect x="22" y="44" width="6" height="4" rx="1" fill="#FCF0E4"/><rect x="22" y="50" width="6" height="4" rx="1" fill="#FCF0E4"/><rect x="22" y="56" width="6" height="4" rx="1" fill="#FCF0E4"/><rect x="22" y="62" width="6" height="4" rx="1" fill="#FCF0E4"/><rect x="22" y="68" width="6" height="4" rx="1" fill="#FCF0E4"/><path d="M85.422 44.211c1.474.737 1.474 2.84 0 3.578L61.894 59.553A2 2 0 0159 57.763V34.237a2 2 0 012.894-1.789l23.528 11.764z" fill="#FCF0E4"/><rect x="112" y="20" width="6" height="4" rx="1" fill="#FCF0E4"/><rect x="112" y="26" width="6" height="4" rx="1" fill="#FCF0E4"/><rect x="112" y="32" width="6" height="4" rx="1" fill="#FCF0E4"/><rect x="112" y="38" width="6" height="4" rx="1" fill="#FCF0E4"/><rect x="112" y="44" width="6" height="4" rx="1" fill="#FCF0E4"/><rect x="112" y="50" width="6" height="4" rx="1" fill="#FCF0E4"/><rect x="112" y="56" width="6" height="4" rx="1" fill="#FCF0E4"/><rect x="112" y="62" width="6" height="4" rx="1" fill="#FCF0E4"/><rect x="112" y="68" width="6" height="4" rx="1" fill="#FCF0E4"/></svg>