<svg width="76" height="76" viewBox="0 0 76 76" fill="none" xmlns="http://www.w3.org/2000/svg">
<path d="M56.2927 21.9371C56.2927 21.2902 56.0357 20.6698 55.5783 20.2124L47.251 11.8851C46.7936 11.4277 46.1732 11.1707 45.5263 11.1707H45.3171V19.7073C45.3171 21.0544 46.409 22.1463 47.7561 22.1463H56.2927V21.9371Z" fill="black"/>
<path d="M19.7073 32.3902V13.6097C19.7073 12.2627 20.7992 11.1707 22.1463 11.1707H45.5263C46.1732 11.1707 46.7936 11.4277 47.251 11.8851L55.5783 20.2124C56.0357 20.6698 56.2927 21.2902 56.2927 21.9371V40.1951M19.7073 42.6341V57.5122C19.7073 58.8593 20.7992 59.9512 22.1463 59.9512H45.8049M45.3171 25.8049H25.8049M50.1951 31.9024H25.8049M50.1951 38H31.9024M46.5366 44.0976H35.561M43.6097 50.1951H36.7805" stroke="black" stroke-width="1.95122" stroke-miterlimit="10" stroke-linecap="round" stroke-linejoin="round"/>
<path d="M55.8049 64.8293C62.5401 64.8293 68 59.3693 68 52.6342C68 45.899 62.5401 40.439 55.8049 40.439C49.0697 40.439 43.6097 45.899 43.6097 52.6342C43.6097 59.3693 49.0697 64.8293 55.8049 64.8293Z" stroke="black" stroke-width="1.95122" stroke-miterlimit="10" stroke-linecap="round" stroke-linejoin="round"/>
<path d="M55.8049 54.4634C56.8151 54.4634 57.6342 53.6444 57.6342 52.6342V46.5366C57.6342 45.5264 56.8151 44.7073 55.8049 44.7073C54.7946 44.7073 53.9756 45.5264 53.9756 46.5366V52.6342C53.9756 53.6444 54.7946 54.4634 55.8049 54.4634Z" fill="black"/>
<path d="M55.8049 60.561C56.8152 60.561 57.6342 59.742 57.6342 58.7317C57.6342 57.7215 56.8152 56.9025 55.8049 56.9025C54.7946 56.9025 53.9756 57.7215 53.9756 58.7317C53.9756 59.742 54.7946 60.561 55.8049 60.561Z" fill="black"/>
<path d="M16.2927 29.7073L11.9024 34.0976M9.01021 31.6932L25.0732 47.7561L32.3902 50.1951L29.9512 42.8781L13.8883 26.8151C12.5412 25.468 10.3573 25.468 9.01021 26.8151C7.66326 28.1622 7.66326 30.3462 9.01021 31.6932Z" stroke="black" stroke-width="1.95122" stroke-miterlimit="10" stroke-linecap="round" stroke-linejoin="round"/>
</svg>
