<svg width="464" height="438" viewBox="0 0 464 438" fill="none" xmlns="http://www.w3.org/2000/svg">
<path d="M325.548 241.067C368.023 185.54 361.332 109.069 310.602 70.2635C259.873 31.458 184.315 45.0134 141.84 100.54C99.3648 156.067 106.056 232.539 156.786 271.344C207.515 310.149 283.072 296.594 325.548 241.067Z" fill="#FCF0E4"/>
<path d="M240.674 437.281C364.014 437.281 464 434.58 464 431.247C464 427.915 364.014 425.213 240.674 425.213C117.335 425.213 17.3487 427.915 17.3487 431.247C17.3487 434.58 117.335 437.281 240.674 437.281Z" fill="#FCF0E4"/>
<path d="M6.71159 271.808L0.666809 282.274H12.767L6.71159 271.808Z" fill="#F8D061"/>
<path d="M416.966 255.148L410.921 265.624H423.022L416.966 255.148Z" fill="#F36B80"/>
<path d="M377.002 86.6948L383.047 76.2285H370.957L377.002 86.6948Z" fill="#2C3EC5"/>
<path d="M289.47 37.5676L286.17 34.8549C287.185 33.6161 287.601 31.8005 287.281 29.9849C286.961 28.1694 285.946 26.5994 284.568 25.7878L286.736 22.1032C289.214 23.5664 290.944 26.1616 291.489 29.2374C292.023 32.3131 291.286 35.3462 289.47 37.5676Z" fill="#F36B80"/>
<path d="M224.964 94.9396C224.153 92.1842 224.655 89.1084 226.342 86.4812C228.04 83.8646 230.646 82.1452 233.487 81.7607L234.053 85.9899C232.472 86.2035 230.924 87.2501 229.92 88.7987C228.916 90.3473 228.595 92.1842 229.044 93.7221L224.964 94.9396Z" fill="#2C3EC5"/>
<path d="M124.126 35.8802C123.325 35.8802 122.534 35.7841 121.765 35.5812L122.844 31.4481C124.393 31.8539 126.219 31.4695 127.735 30.4122C129.252 29.3655 130.245 27.7849 130.416 26.1936L134.667 26.6315C134.378 29.483 132.744 32.1423 130.17 33.9258C128.312 35.2074 126.197 35.8802 124.126 35.8802Z" fill="#F36B80"/>
<path d="M32.514 222.318C30.7625 222.318 28.9683 221.848 27.3129 220.94C24.5789 219.434 22.6779 216.957 22.1012 214.148L26.2877 213.283C26.6081 214.853 27.7722 216.316 29.3848 217.202C30.9975 218.089 32.8558 218.291 34.3509 217.725L35.8568 221.73C34.7781 222.126 33.6568 222.318 32.514 222.318Z" fill="#2C3EC5"/>
<path d="M417.714 208.893L414.734 205.828C415.877 204.717 416.496 202.945 416.379 201.108C416.261 199.271 415.428 197.594 414.147 196.644L416.71 193.226C419.006 194.945 420.437 197.722 420.64 200.841C420.843 203.959 419.764 206.896 417.714 208.893Z" fill="#F8D061"/>
<path d="M313.842 83.1384C313.308 80.3189 314.109 77.2966 316.063 74.8616C318.007 72.4266 320.773 70.9741 323.646 70.8673L323.795 75.1392C322.193 75.1926 320.559 76.0897 319.406 77.5208C318.252 78.9626 317.751 80.7568 318.05 82.3267L313.842 83.1384Z" fill="#F8D061"/>
<path d="M150.409 183.796V197.081C150.409 199.858 152.662 202.101 155.428 202.101H273.034V178.766H155.439C152.662 178.776 150.409 181.019 150.409 183.796Z" fill="#A0C0FF"/>
<path d="M212.982 183.796V197.081C212.982 199.858 215.235 202.101 218.001 202.101H273.034V178.766H218.001C215.235 178.776 212.982 181.019 212.982 183.796Z" fill="#FCF0E4"/>
<path d="M201.64 187.181H161.783V193.311H201.64V187.181Z" stroke="#1D1141" stroke-miterlimit="10" stroke-linecap="round" stroke-linejoin="round"/>
<path d="M275.608 170.649V173.746C275.608 176.523 273.355 178.766 270.589 178.766H152.972V165.619H270.578C273.355 165.629 275.608 167.872 275.608 170.649Z" fill="#2C3EC5"/>
<path d="M213.024 170.649V173.746C213.024 176.523 210.771 178.766 208.005 178.766H152.972V165.619H208.005C210.782 165.629 213.024 167.872 213.024 170.649Z" fill="#FAFAFA"/>
<path d="M170.764 243.357V282.061C170.764 284.837 173.018 287.08 175.784 287.08H303.002V238.327H175.784C173.007 238.327 170.764 240.58 170.764 243.357Z" fill="#F36B80"/>
<path d="M238.239 243.357V282.061C238.239 284.837 240.493 287.08 243.259 287.08H303.002V238.327H243.259C240.482 238.327 238.239 240.58 238.239 243.357Z" fill="#FCF0E4"/>
<path d="M229.268 245.6V269.256" stroke="#1D1141" stroke-miterlimit="10" stroke-linecap="round" stroke-linejoin="round"/>
<path d="M222.252 245.6V270.772" stroke="#1D1141" stroke-miterlimit="10" stroke-linecap="round" stroke-linejoin="round"/>
<path d="M285.861 217.181V233.307C285.861 236.084 283.607 238.327 280.841 238.327H156.571V212.151H280.83C283.607 212.151 285.861 214.404 285.861 217.181Z" fill="#F8D061"/>
<path d="M219.891 217.181V233.307C219.891 236.084 217.638 238.327 214.872 238.327H156.582V212.151H214.872C217.638 212.151 219.891 214.404 219.891 217.181Z" fill="#FCF0E4"/>
<path d="M162.178 217.79H214.285" stroke="#FAFAFA" stroke-miterlimit="10" stroke-linecap="round" stroke-linejoin="round"/>
<path d="M162.178 222.104H214.285" stroke="#FAFAFA" stroke-miterlimit="10" stroke-linecap="round" stroke-linejoin="round"/>
<path d="M162.178 226.43H214.285" stroke="#FAFAFA" stroke-miterlimit="10" stroke-linecap="round" stroke-linejoin="round"/>
<path d="M160.234 207.131C160.234 209.908 162.487 212.151 165.254 212.151H289.513V202.101H165.254C162.487 202.112 160.234 204.354 160.234 207.131Z" fill="#F36B80"/>
<path d="M226.203 207.131C226.203 209.908 228.457 212.151 231.223 212.151H289.513V202.101H231.223C228.446 202.112 226.203 204.354 226.203 207.131Z" fill="#FAFAFA"/>
<path d="M163.748 292.1V299.618C163.748 302.395 166.001 304.638 168.767 304.638H295.985V287.07H168.778C166.001 287.08 163.748 289.334 163.748 292.1Z" fill="#1D1141"/>
<path d="M231.223 292.1V299.618C231.223 302.395 233.476 304.638 236.242 304.638H295.985V287.07H236.242C233.476 287.08 231.223 289.334 231.223 292.1Z" fill="#FFC9B1"/>
<path d="M155.311 309.679V324.673C155.311 327.45 157.564 329.693 160.33 329.693H291.649V304.649H160.33C157.553 304.649 155.311 306.902 155.311 309.679Z" fill="#A0C0FF"/>
<path d="M224.879 309.679V324.673C224.879 327.45 227.132 329.693 229.898 329.693H291.649V304.649H229.898C227.122 304.649 224.879 306.902 224.879 309.679Z" fill="#FFC9B1"/>
<path d="M161.697 334.723V336.592C161.697 339.369 163.951 341.611 166.717 341.611H298.036V329.693H166.717C163.951 329.693 161.697 331.946 161.697 334.723Z" fill="#F8D061"/>
<path d="M231.265 334.723V336.592C231.265 339.369 233.519 341.611 236.285 341.611H298.036V329.693H236.285C233.519 329.693 231.265 331.946 231.265 334.723Z" fill="#FFC9B1"/>
<path d="M161.697 346.631V356.243C161.697 359.019 163.951 361.262 166.717 361.262H298.036V341.601H166.717C163.951 341.611 161.697 343.865 161.697 346.631Z" fill="#2C3EC5"/>
<path d="M231.265 346.631V356.243C231.265 359.019 233.519 361.262 236.285 361.262H298.036V341.601H236.285C233.519 341.611 231.265 343.865 231.265 346.631Z" fill="#FCF0E4"/>
<path d="M340.424 334.776V346.332C340.424 349.173 338.117 351.479 335.276 351.479H213.622V329.629H335.276C338.128 329.629 340.424 331.925 340.424 334.776Z" fill="#F8D061"/>
<path d="M275.726 334.776V346.332C275.726 349.173 273.419 351.479 270.578 351.479H213.622V329.629H270.578C273.419 329.629 275.726 331.925 275.726 334.776Z" fill="#FAFAFA"/>
<path d="M218.621 334.552H270.727" stroke="#FCF0E4" stroke-miterlimit="10" stroke-linecap="round" stroke-linejoin="round"/>
<path d="M218.621 338.877H270.727" stroke="#FCF0E4" stroke-miterlimit="10" stroke-linecap="round" stroke-linejoin="round"/>
<path d="M196.417 269.042V284.207C196.417 287.048 198.724 289.355 201.565 289.355H318.21V263.894H201.576C198.724 263.894 196.417 266.201 196.417 269.042Z" fill="#F8D061"/>
<path d="M258.563 269.042V284.207C258.563 287.048 260.87 289.355 263.711 289.355H318.21V263.894H263.711C260.87 263.894 258.563 266.201 258.563 269.042Z" fill="#FCF0E4"/>
<path d="M264.672 269.747H312.112" stroke="#FAFAFA" stroke-miterlimit="10" stroke-linecap="round" stroke-linejoin="round"/>
<path d="M264.672 274.061H312.112" stroke="#FAFAFA" stroke-miterlimit="10" stroke-linecap="round" stroke-linejoin="round"/>
<path d="M264.672 278.376H312.112" stroke="#FAFAFA" stroke-miterlimit="10" stroke-linecap="round" stroke-linejoin="round"/>
<path d="M250.842 269.256V284.613" stroke="#1D1141" stroke-miterlimit="10" stroke-linecap="round" stroke-linejoin="round"/>
<path d="M244.679 269.256V284.613" stroke="#1D1141" stroke-miterlimit="10" stroke-linecap="round" stroke-linejoin="round"/>
<path d="M337.038 324.47C337.038 327.311 334.732 329.618 331.891 329.618H203.359V319.323H331.891C334.732 319.323 337.038 321.629 337.038 324.47Z" fill="#2C3EC5"/>
<path d="M268.826 324.47C268.826 327.311 266.52 329.618 263.679 329.618H203.359V319.323H263.679C266.52 319.323 268.826 321.629 268.826 324.47Z" fill="#FCF0E4"/>
<path d="M341.652 294.503V314.175C341.652 317.016 339.345 319.323 336.504 319.323H207.973V289.355H336.504C339.345 289.355 341.652 291.662 341.652 294.503Z" fill="#A0C0FF"/>
<path d="M273.44 294.503V314.175C273.44 317.016 271.133 319.323 268.292 319.323H207.973V289.355H268.292C271.133 289.355 273.44 291.662 273.44 294.503Z" fill="#FAFAFA"/>
<path d="M213.622 295.304H265.729" stroke="#FCF0E4" stroke-miterlimit="10" stroke-linecap="round" stroke-linejoin="round"/>
<path d="M213.622 299.629H265.729" stroke="#FCF0E4" stroke-miterlimit="10" stroke-linecap="round" stroke-linejoin="round"/>
<path d="M213.622 303.944H265.729" stroke="#FCF0E4" stroke-miterlimit="10" stroke-linecap="round" stroke-linejoin="round"/>
<path d="M255.017 366.346V369.528C255.017 372.284 252.785 374.505 250.041 374.505H132.381V361.358H250.03C252.796 361.369 255.017 363.601 255.017 366.346Z" fill="#F36B80"/>
<path d="M192.444 366.346V369.528C192.444 372.284 190.212 374.505 187.468 374.505H132.392V361.358H187.468C190.212 361.369 192.444 363.601 192.444 366.346Z" fill="#FCF0E4"/>
<path d="M262.237 379.493V392.864C262.237 395.619 260.005 397.841 257.26 397.841H127.928V374.505H257.26C260.005 374.516 262.237 376.748 262.237 379.493Z" fill="#F36B80"/>
<path d="M193.705 379.493V392.864C193.705 395.619 191.472 397.841 188.728 397.841H127.928V374.505H188.728C191.472 374.516 193.705 376.748 193.705 379.493Z" fill="#FCF0E4"/>
<path d="M132.68 379.642H184.787" stroke="#FAFAFA" stroke-miterlimit="10" stroke-linecap="round" stroke-linejoin="round"/>
<path d="M132.68 383.957H184.787" stroke="#FAFAFA" stroke-miterlimit="10" stroke-linecap="round" stroke-linejoin="round"/>
<path d="M132.68 388.282H184.787" stroke="#FAFAFA" stroke-miterlimit="10" stroke-linecap="round" stroke-linejoin="round"/>
<path d="M204.662 379.642V392.682" stroke="#1D1141" stroke-miterlimit="10" stroke-linecap="round" stroke-linejoin="round"/>
<path d="M210.653 379.642V392.682" stroke="#1D1141" stroke-miterlimit="10" stroke-linecap="round" stroke-linejoin="round"/>
<path d="M252.123 402.828V402.913C252.123 405.669 249.891 407.89 247.146 407.89H122.844V397.841H247.146C249.902 397.851 252.123 400.083 252.123 402.828Z" fill="#F8D061"/>
<path d="M186.165 402.828V402.913C186.165 405.669 183.932 407.89 181.188 407.89H122.855V397.841H181.188C183.932 397.851 186.165 400.083 186.165 402.828Z" fill="#FAFAFA"/>
<path d="M263.251 412.878V425.726C263.251 428.481 261.019 430.702 258.275 430.702H126.913V407.89H258.275C261.019 407.89 263.251 410.122 263.251 412.878Z" fill="#F8D061"/>
<path d="M193.683 412.878V425.726C193.683 428.481 191.451 430.702 188.706 430.702H126.913V407.89H188.706C191.451 407.89 193.683 410.122 193.683 412.878Z" fill="#FCF0E4"/>
<path d="M227.186 412.397V426.345" stroke="#1D1141" stroke-miterlimit="10" stroke-linecap="round" stroke-linejoin="round"/>
<path d="M222.156 412.397V426.345" stroke="#1D1141" stroke-miterlimit="10" stroke-linecap="round" stroke-linejoin="round"/>
<path d="M217.136 412.397V426.345" stroke="#1D1141" stroke-miterlimit="10" stroke-linecap="round" stroke-linejoin="round"/>
<path d="M372.036 356.467V364.071C372.036 366.826 369.804 369.048 367.059 369.048H239.799V351.479H367.059C369.804 351.479 372.036 353.712 372.036 356.467Z" fill="#A0C0FF"/>
<path d="M304.561 356.467V364.071C304.561 366.826 302.329 369.048 299.584 369.048H239.799V351.479H299.584C302.329 351.479 304.561 353.712 304.561 356.467Z" fill="#FAFAFA"/>
<path d="M247.392 355.944H299.499" stroke="#FCF0E4" stroke-miterlimit="10" stroke-linecap="round" stroke-linejoin="round"/>
<path d="M247.392 360.269H299.499" stroke="#FCF0E4" stroke-miterlimit="10" stroke-linecap="round" stroke-linejoin="round"/>
<path d="M224.377 398.919V401.034C224.377 403.789 226.609 406.011 229.354 406.011H360.715V393.932H229.354C226.609 393.942 224.377 396.164 224.377 398.919Z" fill="#A0C0FF"/>
<path d="M293.945 398.919V401.034C293.945 403.789 296.177 406.011 298.922 406.011H360.715V393.932H298.922C296.177 393.942 293.945 396.164 293.945 398.919Z" fill="#FCF0E4"/>
<path d="M245.448 374.035V388.955C245.448 391.71 247.68 393.932 250.425 393.932H381.787V369.048H250.425C247.68 369.048 245.448 371.28 245.448 374.035Z" fill="#1D1141"/>
<path d="M315.016 374.035V388.955C315.016 391.71 317.249 393.932 319.993 393.932H381.787V369.048H319.993C317.249 369.048 315.016 371.28 315.016 374.035Z" fill="#FAFAFA"/>
<path d="M322.354 375.466H374.46" stroke="#FCF0E4" stroke-miterlimit="10" stroke-linecap="round" stroke-linejoin="round"/>
<path d="M322.354 379.781H374.46" stroke="#FCF0E4" stroke-miterlimit="10" stroke-linecap="round" stroke-linejoin="round"/>
<path d="M322.354 384.106H374.46" stroke="#FCF0E4" stroke-miterlimit="10" stroke-linecap="round" stroke-linejoin="round"/>
<path d="M298.036 377.431H256.064V385.035H298.036V377.431Z" stroke="#FAFAFA" stroke-miterlimit="10" stroke-linecap="round" stroke-linejoin="round"/>
<path d="M233.273 410.955V425.768C233.273 428.502 235.484 430.713 238.218 430.713H368.554V406.021H238.218C235.484 406.011 233.273 408.221 233.273 410.955Z" fill="#2C3EC5"/>
<path d="M302.297 410.955V425.768C302.297 428.502 304.507 430.713 307.242 430.713H368.554V406.021H307.242C304.518 406.011 302.297 408.221 302.297 410.955Z" fill="#FCF0E4"/>
<path d="M290.325 414.843H243.259V421.016H290.325V414.843Z" stroke="#1D1141" stroke-miterlimit="10" stroke-linecap="round" stroke-linejoin="round"/>
<path d="M317.067 416.317V425.726C317.067 428.481 319.299 430.702 322.044 430.702H439.693V411.34H322.044C319.299 411.34 317.067 413.572 317.067 416.317Z" fill="#1D1141"/>
<path d="M379.64 416.317V425.726C379.64 428.481 381.872 430.702 384.617 430.702H439.693V411.34H384.617C381.872 411.34 379.64 413.572 379.64 416.317Z" fill="#FAFAFA"/>
<path d="M386.336 416.701H434.748" stroke="#FCF0E4" stroke-miterlimit="10" stroke-linecap="round" stroke-linejoin="round"/>
<path d="M386.336 421.027H434.748" stroke="#FCF0E4" stroke-miterlimit="10" stroke-linecap="round" stroke-linejoin="round"/>
<path d="M369.11 416.701V426.345" stroke="#1D1141" stroke-miterlimit="10" stroke-linecap="round" stroke-linejoin="round"/>
<path d="M364.187 416.701V426.345" stroke="#1D1141" stroke-miterlimit="10" stroke-linecap="round" stroke-linejoin="round"/>
<path d="M202.846 412.034H156.987C150.74 393.707 145.795 373.512 142.174 356.371C137.315 333.302 134.848 315.755 134.848 315.755L119.629 248.067L164.538 206.821C164.538 206.821 176.937 270.558 182.715 306.87C185.054 321.501 187.777 336.731 190.447 350.892C196.78 384.416 202.846 412.034 202.846 412.034Z" fill="#FFC9B1"/>
<path d="M164.986 299.864C167.987 303.613 173.744 304.819 178.005 302.609" stroke="#1D1141" stroke-miterlimit="10" stroke-linecap="round" stroke-linejoin="round"/>
<path d="M202.846 412.034H156.987C150.74 393.707 145.795 373.512 142.174 356.371L190.447 350.892C196.78 384.416 202.846 412.034 202.846 412.034Z" fill="#FAFAFA"/>
<path d="M148.305 371.152C163.043 369.924 177.781 368.706 192.519 367.478" stroke="#1D1141" stroke-miterlimit="10" stroke-linecap="round" stroke-linejoin="round"/>
<path d="M154.307 407.111L161.238 430.713H209.286C210.931 430.713 211.86 428.833 210.867 427.52L210.077 426.484C207.054 422.511 204.972 417.908 203.957 413.017L201.971 403.415C201.02 398.812 195.093 397.456 192.231 401.183L187.008 407.986L154.307 407.111Z" fill="#F36B80"/>
<path d="M161.345 427.114C175.079 427.498 189.358 428.63 203.092 429.015C204.395 426.356 208.325 425.459 210.643 427.296" stroke="#1D1141" stroke-miterlimit="10" stroke-linecap="round" stroke-linejoin="round"/>
<path d="M203.017 410.913C199.525 411.895 196.043 412.878 192.551 413.86C196.236 414.266 199.909 414.683 203.594 415.089C200.614 416.317 197.635 417.556 194.655 418.784C198.211 418.773 201.757 418.762 205.313 418.752" stroke="#1D1141" stroke-miterlimit="10" stroke-linecap="round" stroke-linejoin="round"/>
<path d="M116.18 414.202H72.1148C72.1148 414.202 70.5449 385.73 68.8147 356.382C67.971 341.953 67.0846 327.322 66.3157 315.755C63.9981 280.662 64.3292 238.818 68.0671 208.071L113.275 260.381L112.431 315.755C112.431 315.755 114.61 333.484 115.881 357.578C116.788 374.601 117.248 394.807 116.18 414.202Z" fill="#FFC9B1"/>
<path d="M64.8739 305.941C68.1099 307.265 72.2643 305.279 73.2896 301.936" stroke="#1D1141" stroke-miterlimit="10" stroke-linecap="round" stroke-linejoin="round"/>
<path d="M115.881 357.578C116.788 374.601 117.248 394.807 116.18 414.202H72.1148C72.1148 414.202 70.5448 385.73 68.8147 356.382L115.881 357.578Z" fill="#FAFAFA"/>
<path d="M70.876 371.098C84.9413 371.387 99.0173 371.686 113.083 371.974" stroke="#1D1141" stroke-miterlimit="10" stroke-linecap="round" stroke-linejoin="round"/>
<path d="M78.6722 401.675L82.1644 408.168L117.557 405.979V430.307H61.6912C59.9077 430.307 59.032 428.129 60.3242 426.89L61.5738 425.704C66.7214 420.813 70.0322 414.309 70.9613 407.271L71.5273 402.967C72.0186 399.314 76.9207 398.417 78.6722 401.675Z" fill="#F36B80"/>
<path d="M62.8768 425.063C63.7205 425.896 64.5535 426.729 65.3972 427.573C82.6558 427.103 99.6047 426.794 116.863 426.313" stroke="#1D1141" stroke-miterlimit="10" stroke-linecap="round" stroke-linejoin="round"/>
<path d="M69.904 412.397C72.3176 412.985 74.7313 413.572 77.1449 414.159C74.3361 414.704 71.5167 415.259 68.7079 415.804C70.4487 416.594 72.1895 417.374 73.9303 418.164C71.3244 418.581 68.7292 418.987 66.1234 419.403" stroke="#1D1141" stroke-miterlimit="10" stroke-linecap="round" stroke-linejoin="round"/>
<path d="M189.902 270.954L158.579 173.831L75.607 169.997C75.607 169.997 57.6115 209.491 59.9718 280.608L120.825 281.495L122.823 288.778L189.902 270.954Z" fill="#2C3EC5"/>
<path d="M120.825 281.495L110.327 223.45" stroke="#1D1141" stroke-miterlimit="10" stroke-linecap="round" stroke-linejoin="round"/>
<path d="M59.9719 269.373L118.188 270.772" stroke="#1D1141" stroke-miterlimit="10" stroke-linecap="round" stroke-linejoin="round"/>
<path d="M120.014 277.041L185.748 261.459" stroke="#1D1141" stroke-miterlimit="10" stroke-linecap="round" stroke-linejoin="round"/>
<path d="M110.423 269.822C111.342 261.684 112.687 253.599 114.45 245.6" stroke="#1D1141" stroke-miterlimit="10" stroke-linecap="round" stroke-linejoin="round"/>
<path d="M158.781 189.915C164.954 214.297 171.127 238.679 177.29 263.061" stroke="#1D1141" stroke-miterlimit="10" stroke-linecap="round" stroke-linejoin="round"/>
<path d="M73.642 178.595C98.1842 179.171 122.716 179.737 147.258 180.314" stroke="#1D1141" stroke-miterlimit="10" stroke-linecap="round" stroke-linejoin="round"/>
<path d="M141.256 180.261C144.77 191.4 152.609 201.108 162.744 206.907" stroke="#1D1141" stroke-miterlimit="10" stroke-linecap="round" stroke-linejoin="round"/>
<path d="M81.1073 179.032C76.579 184.639 72.0508 190.246 67.5225 195.864" stroke="#1D1141" stroke-miterlimit="10" stroke-linecap="round" stroke-linejoin="round"/>
<path d="M17.3914 154.063C20.5847 161.101 30.1431 170.254 36.2733 173.831C47.7007 180.506 65.5574 191.56 74.8275 172.475L87.9637 139.998L17.3914 154.063Z" fill="#FFC9B1"/>
<path d="M51.6737 157.224C53.1581 160.193 53.4038 163.771 52.3144 166.911C51.2358 170.051 48.8542 172.731 45.8531 174.162" stroke="#1D1141" stroke-miterlimit="10" stroke-linecap="round" stroke-linejoin="round"/>
<path d="M67.8749 155.558C69.9361 155.665 71.9546 156.541 73.4604 157.961C74.9663 159.382 75.9381 161.347 76.1517 163.408" stroke="#1D1141" stroke-miterlimit="10" stroke-linecap="round" stroke-linejoin="round"/>
<path d="M123.068 96.3066C123.068 96.3066 137.187 98.7843 150.547 101.711C163.918 104.648 185.492 114.206 185.492 114.206L164.762 142.935L158.002 136.997L158.568 173.821L74.8168 172.464L82.8159 146.95L72.7021 117.559C82.4315 103.686 90.9753 102.704 98.7716 100.557C106.557 98.4319 123.068 96.3066 123.068 96.3066Z" fill="#1D1141"/>
<path d="M158.781 138.043C157.19 136.249 155.588 134.444 153.997 132.65C150.473 128.666 148.027 123.337 148.208 118.029C148.401 112.711 150.932 107.52 155.001 104.103" stroke="#FAFAFA" stroke-miterlimit="10" stroke-linecap="round" stroke-linejoin="round"/>
<path d="M82.581 146.053C86.0413 131.86 89.5015 117.666 92.9725 103.483" stroke="#FAFAFA" stroke-miterlimit="10" stroke-linecap="round" stroke-linejoin="round"/>
<path d="M105.5 100.824C105.329 105.16 107.038 109.528 110.113 112.593C114.866 117.335 122.598 118.531 128.825 116.022C135.051 113.512 139.654 107.649 141.277 101.134" stroke="#FAFAFA" stroke-miterlimit="10" stroke-linecap="round" stroke-linejoin="round"/>
<path d="M131.046 69.3294C127.714 65.7303 122.769 64.3846 117.867 64.6089C112.762 64.8439 107.647 65.0788 102.542 65.3244C103.161 67.0225 103.759 68.6993 104.368 70.3546C106.312 69.9808 108.255 69.6071 110.199 69.2439C108.576 70.5042 106.963 71.7751 105.34 73.0353C107.091 77.8305 108.821 82.5724 110.605 87.4957L122.983 91.1696C127.885 91.1589 132.499 87.6346 134.111 82.9995C135.713 78.3645 134.378 72.9178 131.046 69.3294Z" fill="#F8D061"/>
<path d="M135.467 100.781C133.289 100.162 130.993 99.5532 128.814 98.9338C128.515 96.2532 128.077 93.3269 127.778 90.6463C130.063 90.4754 132.199 88.8734 132.904 86.6947C133.609 84.5161 132.765 81.8995 130.864 80.6286C128.963 79.3577 126.144 79.614 124.585 81.2801C123.036 78.514 121.498 75.4062 119.95 72.6294C118.689 72.5867 117.354 72.4479 116.105 72.4051C113.627 72.3197 111.192 73.9217 110.21 76.1965C108.939 79.1441 108.383 82.2306 107.54 85.3277C106.952 87.4957 107.945 89.9628 109.633 91.4473C111.32 92.9317 113.563 93.5832 115.752 94.0638C115.859 95.7405 115.784 97.3852 115.891 99.062C113.755 99.596 111.705 100.279 109.558 100.813C110.167 104.947 112.388 108.663 116.105 110.585C119.811 112.508 124.446 112.529 128.173 110.639C131.911 108.749 134.816 104.904 135.467 100.781Z" fill="#FFC9B1"/>
<path d="M118.455 84.1636C118.926 84.1636 119.309 83.7811 119.309 83.3092C119.309 82.8374 118.926 82.4548 118.455 82.4548C117.983 82.4548 117.6 82.8374 117.6 83.3092C117.6 83.7811 117.983 84.1636 118.455 84.1636Z" fill="#1D1141"/>
<path d="M110.103 82.5082C110.575 82.5082 110.957 82.1257 110.957 81.6538C110.957 81.182 110.575 80.7995 110.103 80.7995C109.631 80.7995 109.248 81.182 109.248 81.6538C109.248 82.1257 109.631 82.5082 110.103 82.5082Z" fill="#1D1141"/>
<path d="M127.458 84.5481C128.301 84.185 129.156 83.8219 129.999 83.4481" stroke="#1D1141" stroke-miterlimit="10" stroke-linecap="round" stroke-linejoin="round"/>
<path d="M115.443 94.1172C117.354 94.3735 119.33 94.256 121.199 93.7648" stroke="#1D1141" stroke-miterlimit="10" stroke-linecap="round" stroke-linejoin="round"/>
<path d="M126.977 90.6569C127.415 90.6249 127.853 90.5822 128.291 90.5501" stroke="#1D1141" stroke-miterlimit="10" stroke-linecap="round" stroke-linejoin="round"/>
<path d="M113.681 81.6966C113.253 82.7325 112.826 83.7685 112.388 84.8044C112.805 84.8365 113.221 84.8685 113.638 84.8899" stroke="#1D1141" stroke-miterlimit="10" stroke-linecap="round" stroke-linejoin="round"/>
<path d="M109.355 77.9052C110.156 77.948 110.957 77.9907 111.758 78.0334" stroke="#1D1141" stroke-miterlimit="10" stroke-linecap="round" stroke-linejoin="round"/>
<path d="M116.991 77.2965C117.888 77.3285 118.786 77.3606 119.672 77.3926" stroke="#1D1141" stroke-miterlimit="10" stroke-linecap="round" stroke-linejoin="round"/>
<path d="M114.439 86.7481C114.631 87.1646 115.08 87.4316 115.539 87.3996C115.987 87.3675 116.404 87.0365 116.543 86.5986" stroke="#1D1141" stroke-miterlimit="10" stroke-linecap="round" stroke-linejoin="round"/>
<path d="M206.873 133.803C200.774 126.039 192.466 120.336 183.729 115.733L165.841 141.183C167.453 142.636 169.055 144.088 170.668 145.53C165.403 149.738 160.106 153.689 154.841 157.897C149.191 162.404 145.357 168.737 143.061 175.594C142.74 176.533 143.2 177.847 143.862 178.595C144.524 179.342 145.517 179.769 146.51 179.737C146.147 180.848 146.436 182.119 147.215 182.984C148.005 183.838 149.266 184.234 150.398 183.977C150.152 185.056 150.611 186.145 151.423 186.893C152.245 187.64 153.474 187.918 154.531 187.576C154.424 188.505 154.841 189.306 155.46 190.011C156.079 190.716 157.009 191.133 157.948 191.143C160.095 191.154 162.466 191.635 164.602 191.891C165.189 190.759 165.916 189.541 166.492 188.409C166.439 188.217 166.385 188.014 166.343 187.822C165.894 187.683 165.403 187.672 164.954 187.79C167.357 185.035 169.686 181.681 172.088 178.936C178.432 171.663 189.486 170.392 198.19 166.238C204.032 163.44 208.912 158.452 210.611 152.194C212.309 145.914 210.878 138.898 206.873 133.803Z" fill="#FFC9B1"/>
<path d="M170.07 145.882C174.192 142.871 178.315 139.859 182.427 136.858" stroke="#1D1141" stroke-miterlimit="10" stroke-linecap="round" stroke-linejoin="round"/>
<path d="M162.284 189.734C163.363 188.922 164.431 188.1 165.51 187.288" stroke="#1D1141" stroke-miterlimit="10" stroke-linecap="round" stroke-linejoin="round"/>
<path d="M154.435 186.38C154.435 187.181 154.435 187.971 154.435 188.772" stroke="#1D1141" stroke-miterlimit="10" stroke-linecap="round" stroke-linejoin="round"/>
<path d="M150.408 182.867C150.366 183.411 150.323 183.956 150.28 184.501" stroke="#1D1141" stroke-miterlimit="10" stroke-linecap="round" stroke-linejoin="round"/>
<path d="M146.393 178.84C146.307 179.257 146.222 179.673 146.136 180.1" stroke="#1D1141" stroke-miterlimit="10" stroke-linecap="round" stroke-linejoin="round"/>
<path d="M49.8901 129.318L29.6411 156.423L19.1749 94.5658C18.8225 92.4939 19.3351 90.3793 20.5953 88.6919L38.8685 64.2244L49.8901 129.318Z" fill="#F36B80"/>
<path d="M84.7063 154.202L30.5489 161.817L19.538 96.7231L73.6954 89.1084L84.7063 154.202Z" fill="#F36B80"/>
<path d="M26.0207 98.9338L35.0772 155.516" stroke="#1D1141" stroke-miterlimit="10" stroke-linecap="round" stroke-linejoin="round"/>
<path d="M42.4035 112.818L64.0622 109.614" stroke="#1D1141" stroke-miterlimit="10" stroke-linecap="round" stroke-linejoin="round"/>
<path d="M43.8666 118.029L64.0621 115.103" stroke="#1D1141" stroke-miterlimit="10" stroke-linecap="round" stroke-linejoin="round"/>
<path d="M73.6954 89.1084L73.0973 84.4734L46.0026 86.2462L42.4035 63.8186L38.8685 64.2351L20.574 88.8735C18.1176 92.1735 20.8837 96.7979 24.9527 96.2105L73.6954 89.1084Z" fill="#FCF0E4"/>
<path d="M42.4036 63.8186L23.81 91.6395C23.81 91.6395 28.413 87.9977 46.0027 86.2355" stroke="#1D1141" stroke-miterlimit="10" stroke-linecap="round" stroke-linejoin="round"/>
<path d="M36.5724 147.292C36.4869 146.737 36.4015 146.16 36.1345 145.658C35.8675 145.156 35.2054 144.804 34.65 144.761C33.7422 149.46 32.8344 154.17 31.9373 158.869C30.1858 151.916 28.178 145.22 26.4266 138.257C26.1916 137.317 25.4867 136.377 24.5255 136.292C24.4828 137.296 24.1838 138.011 24.1304 139.015C24.2479 138.513 23.5323 137.851 23.0197 137.915C21.2362 143.244 19.1856 148.745 17.4021 154.063C21.2682 161.881 28.178 167.829 36.4335 170.627L38.8685 162.383C38.0889 157.352 37.3306 152.322 36.5724 147.292Z" fill="#FFC9B1"/>
<path d="M24.0876 138.759C24.0449 144.665 24.0022 150.571 23.9488 156.477" stroke="#1D1141" stroke-miterlimit="10" stroke-linecap="round" stroke-linejoin="round"/>
<path d="M19.6662 153.7C20.6808 149.684 21.706 145.669 22.7206 141.642" stroke="#1D1141" stroke-miterlimit="10" stroke-linecap="round" stroke-linejoin="round"/>
<path d="M31.9266 157.609C31.7558 158.367 31.5956 159.115 31.4247 159.873" stroke="#1D1141" stroke-miterlimit="10" stroke-linecap="round" stroke-linejoin="round"/>
<path d="M329.039 349.343L328.868 349.076C324.682 342.53 323.496 334.509 325.6 327.033L328.452 316.93L285.359 306.25C285.359 306.25 276.783 332.128 277.114 331.668C277.445 331.22 303.14 352.355 303.14 352.355H327.405C328.943 352.355 329.872 350.646 329.039 349.343Z" fill="#1D1141"/>
<path d="M285.391 337.072C286.779 335.524 288.157 333.986 289.545 332.437C289.449 335.428 289.353 338.429 289.246 341.419C289.246 341.173 289.235 340.917 289.235 340.671" stroke="#FAFAFA" stroke-miterlimit="10" stroke-linecap="round" stroke-linejoin="round"/>
<path d="M310.125 327.055C313.713 327.407 317.291 327.749 320.88 328.101" stroke="#FAFAFA" stroke-miterlimit="10" stroke-linecap="round" stroke-linejoin="round"/>
<path d="M309.356 331.85C313.03 332.192 316.704 332.533 320.378 332.886" stroke="#FAFAFA" stroke-miterlimit="10" stroke-linecap="round" stroke-linejoin="round"/>
<path d="M309.612 336.549C313.543 336.859 317.483 337.158 321.414 337.468" stroke="#FAFAFA" stroke-miterlimit="10" stroke-linecap="round" stroke-linejoin="round"/>
<path d="M361.997 371.899L369.11 397.766L419.486 413.23C421.291 413.786 422.744 411.692 421.601 410.197C414.755 401.237 409.736 391.027 406.81 380.133L402.527 364.167L361.997 371.899Z" fill="#1D1141"/>
<path d="M379.213 400.233C379.747 399.069 380.281 397.894 380.815 396.73C382.171 398.759 383.538 400.788 384.895 402.817" stroke="#FAFAFA" stroke-miterlimit="10" stroke-linecap="round" stroke-linejoin="round"/>
<path d="M400.829 387.962C403.082 387.599 405.346 387.236 407.6 386.872" stroke="#FAFAFA" stroke-miterlimit="10" stroke-linecap="round" stroke-linejoin="round"/>
<path d="M402.591 392.746C404.93 392.394 407.28 392.052 409.618 391.7" stroke="#FAFAFA" stroke-miterlimit="10" stroke-linecap="round" stroke-linejoin="round"/>
<path d="M404.107 398.065C406.863 397.445 409.618 396.837 412.384 396.217" stroke="#FAFAFA" stroke-miterlimit="10" stroke-linecap="round" stroke-linejoin="round"/>
<path d="M251.055 228.715C252.497 261.833 264.373 266.724 300.471 266.724C300.471 266.724 292.354 281.324 282.795 309.465L328.014 325.346L343.243 292.943L345.294 297.386C345.294 297.386 346.768 331.092 360.416 376.94L408.646 374.815C408.646 374.815 394.955 312.915 390.256 290.487C385.557 268.059 377.963 254.304 364.144 237.248C350.324 220.192 325.269 194.465 325.269 194.465L251.055 228.715Z" fill="#F36B80"/>
<path d="M300.193 267.301C303.119 260.733 306.708 254.464 310.905 248.622" stroke="#1D1141" stroke-miterlimit="10" stroke-linecap="round" stroke-linejoin="round"/>
<path d="M343.905 228.672C350.602 230.733 356.294 235.828 359.081 242.246C361.869 248.665 361.709 256.301 358.644 262.602C353.421 273.335 348.263 284.111 342.934 294.791" stroke="#1D1141" stroke-miterlimit="10" stroke-linecap="round" stroke-linejoin="round"/>
<path d="M258.082 224.881C256.47 233.008 259.054 241.851 264.779 247.843C270.503 253.834 279.228 256.803 287.42 255.553C296.701 254.144 304.881 248.601 310.926 241.413C310.328 243.186 311.524 245.343 313.35 245.781C315.177 246.209 317.217 244.82 317.473 242.962C307.562 265.539 297.662 288.116 287.751 310.693" stroke="#1D1141" stroke-miterlimit="10" stroke-linecap="round" stroke-linejoin="round"/>
<path d="M348.348 283.193C352.898 314.698 359.776 345.862 368.907 376.353" stroke="#1D1141" stroke-miterlimit="10" stroke-linecap="round" stroke-linejoin="round"/>
<path d="M375.454 279.337C378.925 281.505 383.72 281.302 387.009 278.867" stroke="#1D1141" stroke-miterlimit="10" stroke-linecap="round" stroke-linejoin="round"/>
<path d="M292.899 122.579C288.958 118.862 283.159 117.239 277.765 117.741C272.372 118.243 267.203 120.924 263.711 125.067C260.678 128.666 257.997 132.746 256.662 137.264C256.384 138.204 255.915 139.186 256.374 140.051C256.833 140.916 257.848 141.45 258.819 141.322C258.488 142.006 258.531 142.881 259.054 143.447C259.578 144.003 260.453 144.195 261.158 143.907C261.158 144.75 261.671 145.626 262.451 145.957C263.23 146.288 264.202 146.107 264.811 145.509C265.644 147.399 267.78 148.659 269.852 148.51L289.193 129.232C290.165 129.809 291.574 129.499 292.205 128.56C292.835 127.62 292.61 126.199 291.703 125.516C292.397 125.612 292.974 125.174 293.273 124.533C293.561 123.882 293.411 123.06 292.899 122.579Z" fill="#1D1141"/>
<path d="M271.913 144.163C271.913 144.163 257.581 151.201 248.791 155.345C240.002 159.488 236.851 165.811 233.508 174.462C230.165 183.112 224.174 198.171 222.412 217.341C220.65 236.511 234.726 243.795 248.802 238.519L257.474 221.303L320.794 208.039L345.048 169.421C345.048 169.421 332.467 161.069 324.97 155.291C317.473 149.513 311.674 148.232 302.478 147.388C293.283 146.544 274.305 145.028 274.305 145.028L271.913 144.163Z" fill="#FAFAFA"/>
<path d="M241.667 160.172C244.167 159.371 246.986 159.638 249.282 160.887C251.589 162.137 253.351 164.348 254.045 166.879C257.516 179.47 256.363 192.98 253.234 205.657C247.338 203.126 240.461 202.966 234.362 204.974" stroke="#1D1141" stroke-miterlimit="10" stroke-linecap="round" stroke-linejoin="round"/>
<path d="M309.965 149.321C310.563 154.277 311.161 159.243 311.77 164.198" stroke="#1D1141" stroke-miterlimit="10" stroke-linecap="round" stroke-linejoin="round"/>
<path d="M259.471 153.102C260.539 160.45 265.59 167.092 272.383 170.083C279.175 173.073 287.484 172.315 293.635 168.15C299.776 163.974 303.546 156.53 303.269 149.108" stroke="#1D1141" stroke-miterlimit="10" stroke-linecap="round" stroke-linejoin="round"/>
<path d="M283.565 147.249C283.618 146.544 283.671 145.861 283.735 145.167C286.128 144.953 288.402 143.629 289.759 141.642C291.158 139.571 291.382 136.975 290.88 134.53C290.41 132.255 289.994 130.13 289.513 127.844C288.573 128.314 287.302 128.165 286.63 127.364C286.416 128.325 285.594 129.126 284.632 129.318C283.661 129.51 282.764 129.243 282.187 128.442C282.005 129.094 281.439 129.617 280.777 129.745C280.115 129.873 279.293 129.649 278.887 129.115C279.09 130.226 278.641 131.443 277.755 132.148C276.868 132.864 275.523 133.088 274.476 132.65C274.423 133.504 273.75 134.348 272.917 134.498C272.65 134.124 272.447 133.515 272.18 133.141C270.3 132.479 267.993 133.024 266.68 134.444C265.366 135.865 265.12 138.075 266.103 139.72C266.947 141.13 268.623 142.027 270.343 142.08C270.14 143.693 269.937 145.306 269.734 146.918C267.694 147.986 265.484 149.129 263.444 150.186C263.294 156.477 266.957 162.233 272.393 165.405C277.829 168.577 284.985 168.534 290.378 165.309C295.782 162.084 299.072 155.056 298.858 148.766C293.796 148.221 288.616 147.783 283.565 147.249Z" fill="#A77456"/>
<path d="M279.731 136.505C280.202 136.505 280.585 136.123 280.585 135.651C280.585 135.179 280.202 134.797 279.731 134.797C279.259 134.797 278.876 135.179 278.876 135.651C278.876 136.123 279.259 136.505 279.731 136.505Z" fill="#1D1141"/>
<path d="M288.435 135.16C288.906 135.16 289.289 134.777 289.289 134.305C289.289 133.834 288.906 133.451 288.435 133.451C287.963 133.451 287.58 133.834 287.58 134.305C287.58 134.777 287.963 135.16 288.435 135.16Z" fill="#1D1141"/>
<path d="M270.119 142.176C270.781 142.187 271.443 142.208 272.094 142.219" stroke="#1D1141" stroke-miterlimit="10" stroke-linecap="round" stroke-linejoin="round"/>
<path d="M277.915 144.355C279.891 145.551 282.39 145.85 284.6 145.156" stroke="#1D1141" stroke-miterlimit="10" stroke-linecap="round" stroke-linejoin="round"/>
<path d="M283.597 146.961C283.554 147.559 283.522 148.157 283.479 148.755" stroke="#1D1141" stroke-miterlimit="10" stroke-linecap="round" stroke-linejoin="round"/>
<path d="M284.44 134.615C284.782 135.491 285.135 136.377 285.476 137.253C285.102 137.285 284.633 137.424 284.248 137.456" stroke="#1D1141" stroke-miterlimit="10" stroke-linecap="round" stroke-linejoin="round"/>
<path d="M281.247 138.567C281.535 139.25 282.465 139.571 283.116 139.207" stroke="#1D1141" stroke-miterlimit="10" stroke-linecap="round" stroke-linejoin="round"/>
<path d="M278.299 132.169C278.321 131.507 278.791 130.888 279.421 130.685C280.051 130.482 280.799 130.728 281.194 131.251" stroke="#1D1141" stroke-miterlimit="10" stroke-linecap="round" stroke-linejoin="round"/>
<path d="M287.463 130.567C288.125 130.471 288.787 130.375 289.438 130.279" stroke="#1D1141" stroke-miterlimit="10" stroke-linecap="round" stroke-linejoin="round"/>
<path d="M268.901 136.004C269.681 136.196 270.471 136.388 271.251 136.57" stroke="#1D1141" stroke-miterlimit="10" stroke-linecap="round" stroke-linejoin="round"/>
<path d="M387.073 207.131C391.025 203.083 393.844 185.44 388.974 178.659C384.104 171.866 370.893 170.798 370.893 170.798L373.873 204.077L387.073 207.131Z" fill="#A77456"/>
<path d="M289.503 193.055C283.479 192.991 276.932 196.857 274.177 202.218L302.553 209.502C303.077 204.183 303.525 198.801 304.048 193.493C299.243 192.767 294.341 192.617 289.503 193.055Z" fill="#A77456"/>
<path d="M304.08 162.853L304.689 158.388L336.665 161.55C340.712 161.945 344.664 163.013 348.37 164.689L352.011 166.334C354.681 160.599 358.772 155.644 363.898 151.938L376.532 142.785L382.225 144.761C382.225 144.761 367.091 177.345 367.508 176.459C367.924 175.572 304.08 162.853 304.08 162.853Z" fill="#FCF0E4"/>
<path d="M374.45 206.48L349.854 226.729C347.216 228.897 343.809 229.911 340.413 229.527L296.327 224.571L304.091 162.853L348.209 167.819C351.606 168.203 355.023 167.189 357.661 165.01L382.225 144.761L374.45 206.48Z" fill="#2C3EC5"/>
<path d="M348.412 168.716L340.648 230.434" stroke="#1D1141" stroke-miterlimit="10" stroke-linecap="round" stroke-linejoin="round"/>
<path d="M356.967 166.089L349.203 227.807" stroke="#1D1141" stroke-miterlimit="10" stroke-linecap="round" stroke-linejoin="round"/>
<path d="M312.304 180.528L337.497 183.358" stroke="#1D1141" stroke-miterlimit="10" stroke-linecap="round" stroke-linejoin="round"/>
<path d="M311.855 184.501L337.049 187.331" stroke="#1D1141" stroke-miterlimit="10" stroke-linecap="round" stroke-linejoin="round"/>
<path d="M311.45 188.142L336.633 190.972" stroke="#1D1141" stroke-miterlimit="10" stroke-linecap="round" stroke-linejoin="round"/>
<path d="M372.645 170.232L364.218 177.185L361.57 199.762L369.804 192.874L372.645 170.232Z" stroke="#1D1141" stroke-miterlimit="10" stroke-linecap="round" stroke-linejoin="round"/>
<path d="M385.589 183.625C380.142 185.825 374.706 188.025 369.259 190.236C368.683 190.471 368.095 190.706 367.636 191.122C367.177 191.539 366.867 192.179 366.995 192.777C368.106 192.756 369.313 192.735 370.423 192.713C369.622 192.906 368.683 193.226 367.871 193.418C367.433 193.525 366.974 193.642 366.611 193.92C366.109 194.305 365.853 194.988 365.991 195.608C369.142 196.056 372.367 196.515 375.518 196.964C373.275 197.039 370.968 197.199 368.725 197.274C368.213 197.295 367.679 197.316 367.23 197.551C366.782 197.786 366.429 198.32 366.579 198.811C370.114 200.211 373.681 201.642 377.216 203.041C375.454 202.987 373.627 202.859 371.865 202.806C371.395 202.795 370.893 202.784 370.466 202.987C370.039 203.19 369.719 203.692 369.868 204.141C373.051 205.315 376.009 206.383 379.192 207.558C381.648 208.466 384.606 207.985 387.095 207.142L385.589 183.625Z" fill="#A77456"/>
<path d="M376.992 187.042C379.352 185.91 381.712 184.778 384.062 183.657" stroke="#1D1141" stroke-miterlimit="10" stroke-linecap="round" stroke-linejoin="round"/>
<path d="M368.96 192.671C373.862 192.404 378.764 192.147 383.666 191.88" stroke="#1D1141" stroke-miterlimit="10" stroke-linecap="round" stroke-linejoin="round"/>
<path d="M372.56 196.569C375.892 197.135 379.213 197.701 382.545 198.267" stroke="#1D1141" stroke-miterlimit="10" stroke-linecap="round" stroke-linejoin="round"/>
<path d="M374.824 202.229C377.013 202.881 379.202 203.532 381.403 204.194" stroke="#1D1141" stroke-miterlimit="10" stroke-linecap="round" stroke-linejoin="round"/>
<path d="M312.699 215.322C312.261 214.895 311.62 214.799 311.012 214.756C306.708 214.511 302.297 214.415 297.993 214.169C303.621 212.834 309.356 211.99 314.984 210.655C315.006 209.63 314.258 208.455 313.254 208.295C313.34 207.612 313.116 206.885 312.656 206.362C312.197 205.839 311.46 205.849 310.809 205.604C304.828 203.329 298.847 201.054 292.867 198.769L288.37 195.437C282.464 195.041 276.655 196.793 271.005 198.534C260.774 201.674 250.041 204.6 240.14 208.658C235.42 210.591 231.863 215.141 231.127 220.192C230.39 225.244 232.494 230.616 236.477 233.82C240.45 237.024 246.217 237.803 251.055 236.169C260.56 232.966 270.129 229.164 279.026 224.55C283.276 226.013 287.666 227.401 292.14 227.829C297.544 225.105 303.226 222.403 308.641 219.68C308.822 219.21 308.534 218.719 308.107 218.473C309.869 217.875 311.556 217.565 313.318 216.967C313.372 216.369 313.137 215.75 312.699 215.322Z" fill="#A77456"/>
<path d="M295.804 220.919C300.086 220.043 304.369 219.157 308.662 218.281" stroke="#1D1141" stroke-miterlimit="10" stroke-linecap="round" stroke-linejoin="round"/>
<path d="M294.522 214.489C296.594 214.116 298.676 213.753 300.748 213.379" stroke="#1D1141" stroke-miterlimit="10" stroke-linecap="round" stroke-linejoin="round"/>
<path d="M293.582 208.06C300.236 208.317 306.9 208.573 313.553 208.829" stroke="#1D1141" stroke-miterlimit="10" stroke-linecap="round" stroke-linejoin="round"/>
<path d="M292.482 197.872C294.928 199.004 297.374 200.146 299.83 201.279" stroke="#1D1141" stroke-miterlimit="10" stroke-linecap="round" stroke-linejoin="round"/>
</svg>
